<svg version="1.1" xmlns="http://www.w3.org/2000/svg" xmlns:xlink="http://www.w3.org/1999/xlink" width="60.09895" height="59.33067" viewBox="0,0,60.09895,59.33067"><g transform="translate(-9.91668,-291.9307)"><g data-paper-data="{&quot;isPaintingLayer&quot;:true}" fill-rule="nonzero" stroke-linejoin="miter" stroke-miterlimit="10" stroke-dasharray="" stroke-dashoffset="0" style="mix-blend-mode: normal"><g><path d="M32.9029,337.55577l-0.03128,-0.03179l-0.05784,-0.00322l-0.33198,-0.3873l-0.00247,-0.00062l-0.00389,-0.0068l-0.03148,-0.03673l-0.19499,-0.19819l-0.26095,-0.15657l-0.79076,-0.79076l-0.14481,-0.24134l-0.42636,-0.2274l-0.18458,-0.01025l-0.13924,-0.16244l-0.18878,-0.10069l-0.05005,-0.17795l-0.33354,-0.38914l-0.2723,-0.2723l-0.06873,-0.11455l-0.10626,-0.08096l-0.2779,-0.34737l-0.10486,-0.12685l-0.07368,-0.08595l-2.09887,-1.53918l-0.16147,-0.19443l-0.20871,-0.14254l-2.53041,-2.84672l-0.14503,-0.27744l-0.11967,-0.13961l-0.58859,-0.5886l-0.09681,-0.16136l-0.14428,-0.12079l-1.2652,-1.73966l-0.12466,-0.30867l-0.18624,-0.27592l-0.63261,-1.73966l-0.00341,-0.03274l-0.01768,-0.02778l-0.9489,-2.84672l-0.00713,-0.09274l-0.04377,-0.08208l-0.12538,-0.50151l-0.42701,-1.1387l-0.02065,-0.18069l-0.07951,-0.16355l-0.63261,-3.00486l0.0093,-0.24797l-0.06019,-0.24074v-2.37227l0.10008,-0.4003l0.04275,-0.4104l0.62165,-1.70954l0.09907,-0.29721l-0.00701,-0.02571l0.03505,-0.05842l0.0209,-0.06271l0.29265,-0.45986l0.28044,-0.46741l0.04674,-0.04674l0.03658,-0.05748l0.02613,-0.00522l0.47904,-0.47904l1.38162,-1.53514l0.27544,-0.18562l0.23056,-0.23909l1.23563,-0.77227l0.44543,-0.29695l0.35912,-0.12826l0.33259,-0.18657l1.73966,-0.47445l0.31287,-0.00666l0.18023,-0.16384l0.05201,-0.09101l0.06636,-0.01659l0.05061,-0.04601l0.10458,0.00721l0.96458,-0.24114h2.84671l0.33585,0.08396l0.34581,0.01609l2.86263,0.85878l0.04874,-0.02568l0.53021,0.17674l0.5422,0.13555l0.0319,0.05581l0.05559,0.01853l1.63641,1.04136l0.20684,0.10343l0.28954,0.24817l0.327,0.1962l0.37852,0.37852l0.94463,-0.94464l0.47499,-0.83122l0.21924,-0.22877l0.16302,-0.2717l0.63261,-0.6326l0.09404,-0.05643l0.06471,-0.08856l0.72711,-0.60592l0.08138,-0.09495l0.03558,-0.17787l0.25715,-0.16365l0.19837,-0.23143l0.18112,-0.01006l0.39484,-0.25126l0.92497,-0.30833l2.19035,-0.78226l0.23951,-0.02356l0.22288,-0.0908l1.07975,-0.15426l0.9217,-0.15361l0.04948,0.00395l0.04628,-0.01791l1.2652,-0.15816l0.14881,0.01804l0.14543,-0.03636h0.3163l0.14543,0.03636l0.14882,-0.01804l1.11162,0.13896l0.02383,-0.01191l0.06416,0.02291l0.06559,0.0082l0.50832,0.19677l0.51333,0.18333l0.055,0.03667l0.06355,0.02459l0.01024,0.0246l1.29457,0.86305l0.28826,0.31709l0.32623,0.2779l0.59939,0.83914l0.53367,0.42694l0.1288,0.16906l0.17457,0.12122l1.05504,1.20577l0.7349,0.7349l0.24079,0.40131l0.1575,0.09001l0.07393,0.29571l0.15682,0.26138l-0.04773,0.17501l0.01619,0.06473l0.09732,0.07299l0.0498,0.0613l0.07224,0.01243l0.30508,0.45197l0.34386,0.42321l-0.00909,0.07274l0.04418,0.06546l0.60444,1.66221l0.59913,1.34805l0.03583,0.20472l0.0978,0.18338l0.3163,1.26521v0.29204l0.07083,0.28332v1.89781l-0.0445,0.17801l0.01691,0.1827l-0.28871,1.87666v0.13826l0.01478,0.02217l-0.01478,0.06652v0.0661l-0.1322,0.52881l-0.11824,0.5321l-0.02957,0.05912l-0.01652,0.0661l-0.02314,0.01322l-1.10442,2.20884l-0.41562,1.38539l-0.17994,0.30265l-0.11843,0.33158l-0.9489,1.42336l-0.10763,0.09785l-0.06505,0.13011l-0.46294,0.54009l-0.11908,0.59542l-0.12645,0.26695l0.02317,0.1477l-0.24621,0.32314l-0.1739,0.36714l-0.14184,0.04728l-0.17902,0.23496l-0.55559,0.44447l-0.76821,1.02427l-0.04832,0.03926l-0.02707,0.05606l-0.61449,0.73739l-0.02101,0.04202l0.0025,0.03628l-0.41282,0.45409l-0.39938,0.46594l-0.03631,0.00202l-0.47899,0.31932l-0.2,0.33333l-0.26129,0.26129l-0.21077,0.3035l-1.10659,0.96827l-0.50093,0.62617l-0.26089,0.19878l-0.21269,0.24967l-1.10705,0.79075l-0.17507,0.06896l-0.14287,0.12246l-0.44128,0.22064l-0.38997,0.29247l-0.93131,0.81489l-0.2614,0.28755l-0.39938,0.46595l-0.03631,0.00202l-0.44839,0.29892l-0.2984,0.10658l-0.16314,0.10381l-0.75842,0.75842l-0.16135,0.09681l-0.12079,0.14427l-1.73966,1.2652l-0.15514,0.06266l-0.05403,0.09454l-0.4727,0.11817l-0.45181,0.18246l-0.09929,-0.04469l-0.13238,0.0331l-0.34326,0.14711l-0.8314,0.71263l-0.80091,0.40045l-0.09566,0.09982h-0.10399l-0.09301,0.04651l-0.1302,-0.04651h-0.89544l-0.6326,-0.15814l-0.0119,-0.00635l-0.04178,0.01139l-0.50523,-0.30314l-0.51989,-0.27727l-0.01172,-0.0417l-0.01157,-0.00693l-0.3163,-0.3163l-0.08785,-0.14641l-0.13252,-0.10768l-0.90708,-1.20943l-1.53972,-1.81967z" fill="#ff4a5c" stroke="#ffddcf" stroke-width="16.5" stroke-linecap="butt"/><path d="M32.9029,337.55577l-0.03129,-0.03179l-0.05783,-0.00322l-0.33197,-0.3873l-0.00247,-0.00061l-0.00389,-0.0068l-0.03149,-0.03674l-0.19499,-0.19818l-0.26095,-0.15658l-0.79076,-0.79075l-0.14481,-0.24133l-0.42637,-0.22741l-0.18457,-0.01025l-0.13924,-0.16244l-0.18878,-0.10068l-0.05005,-0.17795l-0.33355,-0.38914l-0.2723,-0.2723l-0.06873,-0.11454l-0.10626,-0.08096l-0.2779,-0.34737l-0.10487,-0.12685l-0.07367,-0.08595l-2.09887,-1.53917l-0.16147,-0.19443l-0.20872,-0.14254l-2.53041,-2.84672l-0.14502,-0.27744l-0.11967,-0.13961l-0.58859,-0.5886l-0.09681,-0.16135l-0.14428,-0.1208l-1.2652,-1.73966l-0.12466,-0.30867l-0.18624,-0.27591l-0.63261,-1.73967l-0.0034,-0.03275l-0.01768,-0.02778l-0.9489,-2.84672l-0.00714,-0.09274l-0.04377,-0.08208l-0.12538,-0.50151l-0.42701,-1.13869l-0.02065,-0.18068l-0.07951,-0.16357l-0.6326,-3.00487l0.0093,-0.24797l-0.06019,-0.24074v-2.37226l0.10008,-0.40031l0.04275,-0.41041l0.62165,-1.70953l0.09906,-0.29721l-0.00701,-0.02571l0.03505,-0.05842l0.02089,-0.06271l0.29265,-0.45986l0.28045,-0.4674l0.04674,-0.04675l0.03658,-0.05748l0.02614,-0.00523l0.47904,-0.47904l1.38162,-1.53514l0.27544,-0.18563l0.23055,-0.23909l1.23562,-0.77227l0.44543,-0.29695l0.35913,-0.12826l0.33258,-0.18658l1.73965,-0.47445l0.31289,-0.00666l0.18021,-0.16384l0.05201,-0.09101l0.06635,-0.01659l0.05062,-0.04601l0.10458,0.00721l0.96459,-0.24114h2.84671l0.33585,0.08396l0.34582,0.01608l2.86262,0.85879l0.04874,-0.02567l0.53021,0.17674l0.5422,0.13556l0.03189,0.05581l0.05558,0.01852l1.63641,1.04135l0.20684,0.10343l0.28954,0.24816l0.327,0.19621l0.37852,0.37852l0.94462,-0.94464l0.47499,-0.83122l0.21924,-0.22876l0.16302,-0.2717l0.6326,-0.6326l0.09405,-0.05644l0.06471,-0.08855l0.72712,-0.60593l0.08138,-0.09494l0.03558,-0.17787l0.25717,-0.16365l0.19837,-0.23144l0.18112,-0.01006l0.39484,-0.25126l0.92498,-0.30833l2.19033,-0.78227l0.23952,-0.02356l0.22288,-0.0908l1.07976,-0.15425l0.9217,-0.15362l0.04946,0.00396l0.04628,-0.01792l1.26521,-0.15816l0.14882,0.01804l0.14542,-0.03636h0.3163l0.14543,0.03636l0.14881,-0.01804l1.11162,0.13895l0.02383,-0.01191l0.06417,0.02291l0.06559,0.0082l0.50833,0.19676l0.51332,0.18333l0.055,0.03667l0.06354,0.0246l0.01025,0.0246l1.29456,0.86304l0.28827,0.31709l0.32624,0.2779l0.59938,0.83914l0.53366,0.42694l0.1288,0.16906l0.17457,0.12122l1.05504,1.20577l0.7349,0.73489l0.24078,0.40132l0.1575,0.09l0.07393,0.29572l0.15682,0.26137l-0.04773,0.17501l0.01619,0.06474l0.09732,0.073l0.04981,0.06129l0.07225,0.01243l0.30508,0.45197l0.34386,0.42321l-0.00909,0.07274l0.04419,0.06545l0.60444,1.66221l0.59913,1.34805l0.03582,0.20472l0.09781,0.18338l0.3163,1.26522v0.29203l0.07084,0.28332v1.89781l-0.04451,0.17802l0.01692,0.1827l-0.28872,1.87666v0.13826l0.01478,0.02218l-0.01478,0.06651v0.0661l-0.1322,0.5288l-0.11825,0.5321l-0.02956,0.05912l-0.01652,0.0661l-0.02314,0.01322l-1.10442,2.20884l-0.41562,1.3854l-0.17994,0.30264l-0.11843,0.33159l-0.94891,1.42336l-0.10763,0.09785l-0.06506,0.1301l-0.46294,0.54009l-0.11908,0.59542l-0.12645,0.26695l0.02317,0.14771l-0.2462,0.32314l-0.17391,0.36714l-0.14183,0.04729l-0.17902,0.23496l-0.55559,0.44447l-0.76821,1.02427l-0.04832,0.03927l-0.02707,0.05606l-0.61449,0.73739l-0.02101,0.04201l0.00251,0.03628l-0.41281,0.45409l-0.39938,0.46595l-0.03631,0.00203l-0.47899,0.31931l-0.2,0.33334l-0.26129,0.26128l-0.21077,0.30351l-1.10659,0.96827l-0.50094,0.62618l-0.26089,0.19876l-0.21269,0.24968l-1.10706,0.79076l-0.17507,0.06896l-0.14287,0.12246l-0.44127,0.22064l-0.38997,0.29247l-0.9313,0.81489l-0.2614,0.28754l-0.39937,0.46595l-0.03632,0.00201l-0.44839,0.29892l-0.29839,0.10657l-0.16315,0.10381l-0.75842,0.75842l-0.16136,0.09681l-0.12078,0.14428l-1.73965,1.2652l-0.15514,0.06266l-0.05403,0.09454l-0.4727,0.11818l-0.45181,0.18246l-0.09929,-0.04468l-0.13239,0.0331l-0.34326,0.14711l-0.8314,0.71262l-0.80091,0.40044l-0.09567,0.09983h-0.10398l-0.093,0.04651l-0.13021,-0.04651h-0.89543l-0.6326,-0.15815l-0.0119,-0.00635l-0.04179,0.01139l-0.50523,-0.30313l-0.51987,-0.27727l-0.01172,-0.0417l-0.01157,-0.00693l-0.31629,-0.3163l-0.08784,-0.14641l-0.13253,-0.10767l-0.90708,-1.20944l-1.53972,-1.81967z" fill="#ff4a5c" stroke="#c00063" stroke-width="8.5" stroke-linecap="butt"/><path d="M32.9029,337.55577l-0.03128,-0.03179l-0.05783,-0.00322l-0.33197,-0.3873l-0.00247,-0.00061l-0.00388,-0.0068l-0.03149,-0.03674l-0.19499,-0.19818l-0.26095,-0.15657l-0.79075,-0.79075l-0.1448,-0.24134l-0.42638,-0.2274l-0.18457,-0.01026l-0.13924,-0.16244l-0.18878,-0.10068l-0.05005,-0.17795l-0.33355,-0.38914l-0.2723,-0.2723l-0.06873,-0.11454l-0.10626,-0.08096l-0.2779,-0.34738l-0.10486,-0.12685l-0.07367,-0.08596l-2.09887,-1.53918l-0.16147,-0.19443l-0.20871,-0.14254l-2.53042,-2.84672l-0.14504,-0.27744l-0.11968,-0.13963l-0.58859,-0.58859l-0.0968,-0.16135l-0.14428,-0.1208l-1.2652,-1.73965l-0.12466,-0.30867l-0.18624,-0.27592l-0.63261,-1.73965l-0.00342,-0.03275l-0.01768,-0.02778l-0.9489,-2.84672l-0.00714,-0.09274l-0.04377,-0.08207l-0.12538,-0.50151l-0.427,-1.1387l-0.02065,-0.18068l-0.07951,-0.16357l-0.6326,-3.00487l0.0093,-0.24797l-0.06019,-0.24074v-2.37226l0.10007,-0.40031l0.04275,-0.41041l0.62165,-1.70953l0.09906,-0.29721l-0.00701,-0.02571l0.03505,-0.05842l0.0209,-0.06271l0.29265,-0.45987l0.28044,-0.4674l0.04674,-0.04674l0.03658,-0.05748l0.02614,-0.00522l0.47905,-0.47905l1.38162,-1.53514l0.27544,-0.18563l0.23055,-0.2391l1.23562,-0.77227l0.44544,-0.29695l0.35912,-0.12826l0.33259,-0.18658l1.73965,-0.47445l0.31289,-0.00666l0.18022,-0.16384l0.05201,-0.09102l0.06635,-0.01659l0.05062,-0.04601l0.10458,0.00721l0.96458,-0.24115h2.84671l0.33586,0.08396l0.34581,0.01609l2.86262,0.85879l0.04874,-0.02569l0.53021,0.17674l0.5422,0.13555l0.03189,0.05581l0.05559,0.01853l1.63642,1.04136l0.20684,0.10342l0.28954,0.24818l0.327,0.19619l0.37852,0.37852l0.94464,-0.94463l0.47498,-0.83122l0.21923,-0.22877l0.16302,-0.2717l0.63261,-0.63261l0.09405,-0.05643l0.06471,-0.08855l0.72712,-0.60593l0.08138,-0.09495l0.03558,-0.17788l0.25716,-0.16365l0.19837,-0.23143l0.18112,-0.01006l0.39484,-0.25126l0.92496,-0.30832l2.19035,-0.78226l0.23952,-0.02357l0.22287,-0.0908l1.07975,-0.15425l0.9217,-0.15362l0.04948,0.00395l0.04629,-0.01791l1.2652,-0.15816l0.14881,0.01804l0.14543,-0.03635h0.3163l0.14543,0.03635l0.14882,-0.01804l1.11161,0.13895l0.02384,-0.01192l0.06416,0.02292l0.06559,0.0082l0.50832,0.19678l0.51333,0.18333l0.055,0.03666l0.06354,0.0246l0.01024,0.02459l1.29458,0.86305l0.28826,0.31709l0.32623,0.2779l0.5994,0.83914l0.53366,0.42693l0.1288,0.16906l0.17457,0.12122l1.05504,1.20576l0.7349,0.7349l0.24079,0.40131l0.1575,0.09l0.07393,0.29572l0.15682,0.26137l-0.04773,0.17501l0.01619,0.06474l0.09732,0.07298l0.0498,0.0613l0.07224,0.01243l0.30508,0.45197l0.34387,0.42321l-0.00909,0.07274l0.04419,0.06547l0.60445,1.6622l0.59913,1.34805l0.03583,0.20472l0.0978,0.18338l0.3163,1.26521v0.29203l0.07082,0.28331v1.89781l-0.0445,0.17802l0.01691,0.18271l-0.28871,1.87666v0.13826l0.01478,0.02217l-0.01478,0.0665v0.0661l-0.13221,0.52881l-0.11824,0.5321l-0.02956,0.05913l-0.01653,0.0661l-0.02313,0.01322l-1.10442,2.20884l-0.41562,1.38539l-0.17995,0.30265l-0.11843,0.33158l-0.9489,1.42336l-0.10764,0.09785l-0.06506,0.13011l-0.46294,0.54008l-0.11907,0.59541l-0.12645,0.26695l0.02317,0.14771l-0.2462,0.32314l-0.17391,0.36714l-0.14184,0.04729l-0.17902,0.23496l-0.55559,0.44447l-0.76821,1.02428l-0.04832,0.03925l-0.02706,0.05607l-0.6145,0.73739l-0.02101,0.04202l0.0025,0.03627l-0.41281,0.45409l-0.39939,0.46595l-0.0363,0.00202l-0.47899,0.31933l-0.2,0.33333l-0.26128,0.26128l-0.21077,0.30351l-1.10659,0.96826l-0.50093,0.62617l-0.26089,0.19878l-0.21269,0.24968l-1.10706,0.79075l-0.17507,0.06897l-0.14287,0.12246l-0.44128,0.22064l-0.38996,0.29247l-0.9313,0.81489l-0.26141,0.28755l-0.39938,0.46596l-0.03631,0.00202l-0.44838,0.29892l-0.2984,0.10657l-0.16315,0.10382l-0.75843,0.75842l-0.16135,0.09681l-0.1208,0.14428l-1.73965,1.26521l-0.15515,0.06266l-0.05402,0.09454l-0.4727,0.11818l-0.45181,0.18245l-0.09929,-0.04468l-0.13238,0.0331l-0.34325,0.14711l-0.8314,0.71263l-0.8009,0.40046l-0.09567,0.09983h-0.10398l-0.09301,0.0465l-0.13021,-0.0465h-0.89544l-0.63261,-0.15816l-0.01189,-0.00635l-0.04179,0.01139l-0.50523,-0.30313l-0.51988,-0.27727l-0.01172,-0.0417l-0.01156,-0.00693l-0.3163,-0.3163l-0.08785,-0.14641l-0.13252,-0.10768l-0.90707,-1.20943l-1.53972,-1.81967z" fill="#ff4a5c" stroke="none" stroke-width="0.5" stroke-linecap="butt"/><path d="M52.95987,309.19944c0,2.22728 -1.62855,4.03285 -3.63747,4.03285c-2.00892,0 -3.63747,-1.80557 -3.63747,-4.03285c0,-2.22728 1.62855,-4.03284 3.63747,-4.03284c2.00892,0 3.63747,1.80556 3.63747,4.03284z" fill="#ff9ea8" stroke="#ffddcf" stroke-width="0" stroke-linecap="butt"/><path d="M30.28571,313.57145l3.42857,-1.28571" fill="none" stroke="#000000" stroke-width="1.5" stroke-linecap="round"/><path d="M29.57143,314.14286l5,-2.28571" fill="none" stroke="#000000" stroke-width="2.5" stroke-linecap="round"/><path d="M51.14287,312.71431l-4.57143,-1.71429" fill="none" stroke="#000000" stroke-width="2.5" stroke-linecap="round"/><path d="M37.27931,318.57066l7.94635,-0.93594c0,0 0.26569,6.93892 -2.75688,7.29493c-3.02256,0.356 -5.18947,-6.35899 -5.18947,-6.35899z" fill="#000000" stroke="#000000" stroke-width="2.5" stroke-linecap="round"/></g></g></g></svg>