<svg version="1.1" xmlns="http://www.w3.org/2000/svg" xmlns:xlink="http://www.w3.org/1999/xlink" width="60.09895" height="59.33067" viewBox="0,0,60.09895,59.33067"><g transform="translate(-9.91668,-291.93068)"><g data-paper-data="{&quot;isPaintingLayer&quot;:true}" fill-rule="nonzero" stroke-linecap="butt" stroke-linejoin="miter" stroke-miterlimit="10" stroke-dasharray="" stroke-dashoffset="0" style="mix-blend-mode: normal"><path d="M32.9029,337.55575l-0.03128,-0.03179l-0.05784,-0.00322l-0.33198,-0.3873l-0.00247,-0.00062l-0.00389,-0.0068l-0.03148,-0.03673l-0.19499,-0.19819l-0.26095,-0.15657l-0.79076,-0.79076l-0.14481,-0.24134l-0.42636,-0.2274l-0.18458,-0.01025l-0.13924,-0.16244l-0.18878,-0.10069l-0.05005,-0.17795l-0.33354,-0.38914l-0.2723,-0.2723l-0.06873,-0.11455l-0.10626,-0.08096l-0.2779,-0.34737l-0.10486,-0.12685l-0.07368,-0.08595l-2.09887,-1.53918l-0.16147,-0.19443l-0.20871,-0.14254l-2.53041,-2.84672l-0.14503,-0.27744l-0.11967,-0.13961l-0.58859,-0.5886l-0.09681,-0.16136l-0.14428,-0.12079l-1.2652,-1.73966l-0.12466,-0.30867l-0.18624,-0.27592l-0.63261,-1.73966l-0.00341,-0.03274l-0.01768,-0.02778l-0.9489,-2.84672l-0.00713,-0.09274l-0.04377,-0.08208l-0.12538,-0.50151l-0.42701,-1.1387l-0.02065,-0.18069l-0.07951,-0.16355l-0.63261,-3.00486l0.0093,-0.24797l-0.06019,-0.24074v-2.37227l0.10008,-0.4003l0.04275,-0.4104l0.62165,-1.70954l0.09907,-0.29721l-0.00701,-0.02571l0.03505,-0.05842l0.0209,-0.06271l0.29265,-0.45986l0.28044,-0.46741l0.04674,-0.04674l0.03658,-0.05748l0.02613,-0.00522l0.47904,-0.47904l1.38162,-1.53514l0.27544,-0.18562l0.23056,-0.23909l1.23563,-0.77227l0.44543,-0.29695l0.35912,-0.12826l0.33259,-0.18657l1.73966,-0.47445l0.31287,-0.00666l0.18023,-0.16384l0.05201,-0.09101l0.06636,-0.01659l0.05061,-0.04601l0.10458,0.00721l0.96458,-0.24114h2.84671l0.33585,0.08396l0.34581,0.01609l2.86263,0.85878l0.04874,-0.02568l0.53021,0.17674l0.5422,0.13555l0.0319,0.05581l0.05559,0.01853l1.63641,1.04136l0.20684,0.10343l0.28954,0.24817l0.327,0.1962l0.37852,0.37852l0.94463,-0.94464l0.47499,-0.83122l0.21924,-0.22877l0.16302,-0.2717l0.63261,-0.6326l0.09404,-0.05643l0.06471,-0.08856l0.72711,-0.60592l0.08138,-0.09495l0.03558,-0.17787l0.25715,-0.16365l0.19837,-0.23143l0.18112,-0.01006l0.39484,-0.25126l0.92497,-0.30833l2.19035,-0.78226l0.23951,-0.02356l0.22288,-0.0908l1.07975,-0.15426l0.9217,-0.15361l0.04948,0.00395l0.04628,-0.01791l1.2652,-0.15816l0.14881,0.01804l0.14543,-0.03636h0.3163l0.14543,0.03636l0.14882,-0.01804l1.11162,0.13896l0.02383,-0.01191l0.06416,0.02291l0.06559,0.0082l0.50832,0.19677l0.51333,0.18333l0.055,0.03667l0.06355,0.02459l0.01024,0.0246l1.29457,0.86305l0.28826,0.31709l0.32623,0.2779l0.59939,0.83914l0.53367,0.42694l0.1288,0.16906l0.17457,0.12122l1.05504,1.20577l0.7349,0.7349l0.24079,0.40131l0.1575,0.09001l0.07393,0.29571l0.15682,0.26138l-0.04773,0.17501l0.01619,0.06473l0.09732,0.07299l0.0498,0.0613l0.07224,0.01243l0.30508,0.45197l0.34386,0.42321l-0.00909,0.07274l0.04418,0.06546l0.60444,1.66221l0.59913,1.34805l0.03583,0.20472l0.0978,0.18338l0.3163,1.26521v0.29204l0.07083,0.28332v1.89781l-0.0445,0.17801l0.01691,0.1827l-0.28871,1.87666v0.13826l0.01478,0.02217l-0.01478,0.06652v0.0661l-0.1322,0.52881l-0.11824,0.5321l-0.02957,0.05912l-0.01652,0.0661l-0.02314,0.01322l-1.10442,2.20884l-0.41562,1.38539l-0.17994,0.30265l-0.11843,0.33158l-0.9489,1.42336l-0.10763,0.09785l-0.06505,0.13011l-0.46294,0.54009l-0.11908,0.59542l-0.12645,0.26695l0.02317,0.1477l-0.24621,0.32314l-0.1739,0.36714l-0.14184,0.04728l-0.17902,0.23496l-0.55559,0.44447l-0.76821,1.02427l-0.04832,0.03926l-0.02707,0.05606l-0.61449,0.73739l-0.02101,0.04202l0.0025,0.03628l-0.41282,0.45409l-0.39938,0.46594l-0.03631,0.00202l-0.47899,0.31932l-0.2,0.33333l-0.26129,0.26129l-0.21077,0.3035l-1.10659,0.96827l-0.50093,0.62617l-0.26089,0.19878l-0.21269,0.24967l-1.10705,0.79075l-0.17507,0.06896l-0.14287,0.12246l-0.44128,0.22064l-0.38997,0.29247l-0.93131,0.81489l-0.2614,0.28755l-0.39938,0.46595l-0.03631,0.00202l-0.44839,0.29892l-0.2984,0.10658l-0.16314,0.10381l-0.75842,0.75842l-0.16135,0.09681l-0.12079,0.14427l-1.73966,1.2652l-0.15514,0.06266l-0.05403,0.09454l-0.4727,0.11817l-0.45181,0.18246l-0.09929,-0.04469l-0.13238,0.0331l-0.34326,0.14711l-0.8314,0.71263l-0.80091,0.40045l-0.09566,0.09982h-0.10399l-0.09301,0.04651l-0.1302,-0.04651h-0.89544l-0.6326,-0.15814l-0.0119,-0.00635l-0.04178,0.01139l-0.50523,-0.30314l-0.51989,-0.27727l-0.01172,-0.0417l-0.01157,-0.00693l-0.3163,-0.3163l-0.08785,-0.14641l-0.13252,-0.10768l-0.90708,-1.20943l-1.53972,-1.81967z" fill="#ff4a5c" stroke="#ffddcf" stroke-width="16.5"/><path d="M32.9029,337.55575l-0.03129,-0.03179l-0.05783,-0.00322l-0.33197,-0.3873l-0.00247,-0.00061l-0.00389,-0.0068l-0.03149,-0.03674l-0.19499,-0.19818l-0.26095,-0.15658l-0.79076,-0.79075l-0.14481,-0.24133l-0.42637,-0.22741l-0.18457,-0.01025l-0.13924,-0.16244l-0.18878,-0.10068l-0.05005,-0.17795l-0.33355,-0.38914l-0.2723,-0.2723l-0.06873,-0.11454l-0.10626,-0.08096l-0.2779,-0.34737l-0.10487,-0.12685l-0.07367,-0.08595l-2.09887,-1.53917l-0.16147,-0.19443l-0.20872,-0.14254l-2.53041,-2.84672l-0.14502,-0.27744l-0.11967,-0.13961l-0.58859,-0.5886l-0.09681,-0.16135l-0.14428,-0.1208l-1.2652,-1.73966l-0.12466,-0.30867l-0.18624,-0.27591l-0.63261,-1.73967l-0.0034,-0.03275l-0.01768,-0.02778l-0.9489,-2.84672l-0.00714,-0.09274l-0.04377,-0.08208l-0.12538,-0.50151l-0.42701,-1.13869l-0.02065,-0.18068l-0.07951,-0.16357l-0.6326,-3.00487l0.0093,-0.24797l-0.06019,-0.24074v-2.37226l0.10008,-0.40031l0.04275,-0.41041l0.62165,-1.70953l0.09906,-0.29721l-0.00701,-0.02571l0.03505,-0.05842l0.02089,-0.06271l0.29265,-0.45986l0.28045,-0.4674l0.04674,-0.04675l0.03658,-0.05748l0.02614,-0.00523l0.47904,-0.47904l1.38162,-1.53514l0.27544,-0.18563l0.23055,-0.23909l1.23562,-0.77227l0.44543,-0.29695l0.35913,-0.12826l0.33258,-0.18658l1.73965,-0.47445l0.31289,-0.00666l0.18021,-0.16384l0.05201,-0.09101l0.06635,-0.01659l0.05062,-0.04601l0.10458,0.00721l0.96459,-0.24114h2.84671l0.33585,0.08396l0.34582,0.01608l2.86262,0.85879l0.04874,-0.02567l0.53021,0.17674l0.5422,0.13556l0.03189,0.05581l0.05558,0.01852l1.63641,1.04135l0.20684,0.10343l0.28954,0.24816l0.327,0.19621l0.37852,0.37852l0.94462,-0.94464l0.47499,-0.83122l0.21924,-0.22876l0.16302,-0.2717l0.6326,-0.6326l0.09405,-0.05644l0.06471,-0.08855l0.72712,-0.60593l0.08138,-0.09494l0.03558,-0.17787l0.25717,-0.16365l0.19837,-0.23144l0.18112,-0.01006l0.39484,-0.25126l0.92498,-0.30833l2.19033,-0.78227l0.23952,-0.02356l0.22288,-0.0908l1.07976,-0.15425l0.9217,-0.15362l0.04946,0.00396l0.04628,-0.01792l1.26521,-0.15816l0.14882,0.01804l0.14542,-0.03636h0.3163l0.14543,0.03636l0.14881,-0.01804l1.11162,0.13895l0.02383,-0.01191l0.06417,0.02291l0.06559,0.0082l0.50833,0.19676l0.51332,0.18333l0.055,0.03667l0.06354,0.0246l0.01025,0.0246l1.29456,0.86304l0.28827,0.31709l0.32624,0.2779l0.59938,0.83914l0.53366,0.42694l0.1288,0.16906l0.17457,0.12122l1.05504,1.20577l0.7349,0.73489l0.24078,0.40132l0.1575,0.09l0.07393,0.29572l0.15682,0.26137l-0.04773,0.17501l0.01619,0.06474l0.09732,0.073l0.04981,0.06129l0.07225,0.01243l0.30508,0.45197l0.34386,0.42321l-0.00909,0.07274l0.04419,0.06545l0.60444,1.66221l0.59913,1.34805l0.03582,0.20472l0.09781,0.18338l0.3163,1.26522v0.29203l0.07084,0.28332v1.89781l-0.04451,0.17802l0.01692,0.1827l-0.28872,1.87666v0.13826l0.01478,0.02218l-0.01478,0.06651v0.0661l-0.1322,0.5288l-0.11825,0.5321l-0.02956,0.05912l-0.01652,0.0661l-0.02314,0.01322l-1.10442,2.20884l-0.41562,1.3854l-0.17994,0.30264l-0.11843,0.33159l-0.94891,1.42336l-0.10763,0.09785l-0.06506,0.1301l-0.46294,0.54009l-0.11908,0.59542l-0.12645,0.26695l0.02317,0.14771l-0.2462,0.32314l-0.17391,0.36714l-0.14183,0.04729l-0.17902,0.23496l-0.55559,0.44447l-0.76821,1.02427l-0.04832,0.03927l-0.02707,0.05606l-0.61449,0.73739l-0.02101,0.04201l0.00251,0.03628l-0.41281,0.45409l-0.39938,0.46595l-0.03631,0.00203l-0.47899,0.31931l-0.2,0.33334l-0.26129,0.26128l-0.21077,0.30351l-1.10659,0.96827l-0.50094,0.62618l-0.26089,0.19876l-0.21269,0.24968l-1.10706,0.79076l-0.17507,0.06896l-0.14287,0.12246l-0.44127,0.22064l-0.38997,0.29247l-0.9313,0.81489l-0.2614,0.28754l-0.39937,0.46595l-0.03632,0.00201l-0.44839,0.29892l-0.29839,0.10657l-0.16315,0.10381l-0.75842,0.75842l-0.16136,0.09681l-0.12078,0.14428l-1.73965,1.2652l-0.15514,0.06266l-0.05403,0.09454l-0.4727,0.11818l-0.45181,0.18246l-0.09929,-0.04468l-0.13239,0.0331l-0.34326,0.14711l-0.8314,0.71262l-0.80091,0.40044l-0.09567,0.09983h-0.10398l-0.093,0.04651l-0.13021,-0.04651h-0.89543l-0.6326,-0.15815l-0.0119,-0.00635l-0.04179,0.01139l-0.50523,-0.30313l-0.51987,-0.27727l-0.01172,-0.0417l-0.01157,-0.00693l-0.31629,-0.3163l-0.08784,-0.14641l-0.13253,-0.10767l-0.90708,-1.20944l-1.53972,-1.81967z" fill="#ff4a5c" stroke="#5d347a" stroke-width="8.5"/><path d="M32.9029,337.44464l-0.03128,-0.03179l-0.05783,-0.00322l-0.33197,-0.3873l-0.00247,-0.00061l-0.00388,-0.0068l-0.03149,-0.03674l-0.19499,-0.19818l-0.26095,-0.15657l-0.79075,-0.79075l-0.1448,-0.24134l-0.42638,-0.2274l-0.18457,-0.01026l-0.13924,-0.16244l-0.18878,-0.10068l-0.05005,-0.17795l-0.33355,-0.38914l-0.2723,-0.2723l-0.06873,-0.11454l-0.10626,-0.08096l-0.2779,-0.34738l-0.10486,-0.12685l-0.07367,-0.08596l-2.09887,-1.53918l-0.16147,-0.19443l-0.20871,-0.14254l-2.53042,-2.84672l-0.14504,-0.27744l-0.11968,-0.13963l-0.58859,-0.58859l-0.0968,-0.16135l-0.14428,-0.1208l-1.2652,-1.73965l-0.12466,-0.30867l-0.18624,-0.27592l-0.63261,-1.73965l-0.00342,-0.03275l-0.01768,-0.02778l-0.9489,-2.84672l-0.00714,-0.09274l-0.04377,-0.08207l-0.12538,-0.50151l-0.427,-1.1387l-0.02065,-0.18068l-0.07951,-0.16357l-0.6326,-3.00487l0.0093,-0.24797l-0.06019,-0.24074v-2.37226l0.10007,-0.40031l0.04275,-0.41041l0.62165,-1.70953l0.09906,-0.29721l-0.00701,-0.02571l0.03505,-0.05842l0.0209,-0.06271l0.29265,-0.45987l0.28044,-0.4674l0.04674,-0.04674l0.03658,-0.05748l0.02614,-0.00522l0.47905,-0.47905l1.38162,-1.53514l0.27544,-0.18563l0.23055,-0.2391l1.23562,-0.77227l0.44544,-0.29695l0.35912,-0.12826l0.33259,-0.18658l1.73965,-0.47445l0.31289,-0.00666l0.18022,-0.16384l0.05201,-0.09102l0.06635,-0.01659l0.05062,-0.04601l0.10458,0.00721l0.96458,-0.24115h2.84671l0.33586,0.08396l0.34581,0.01609l2.86262,0.85879l0.04874,-0.02569l0.53021,0.17674l0.5422,0.13555l0.03189,0.05581l0.05559,0.01853l1.63642,1.04136l0.20684,0.10342l0.28954,0.24818l0.327,0.19619l0.37852,0.37852l0.94464,-0.94463l0.47498,-0.83122l0.21923,-0.22877l0.16302,-0.2717l0.63261,-0.63261l0.09405,-0.05643l0.06471,-0.08855l0.72712,-0.60593l0.08138,-0.09495l0.03558,-0.17788l0.25716,-0.16365l0.19837,-0.23143l0.18112,-0.01006l0.39484,-0.25126l0.92496,-0.30832l2.19035,-0.78226l0.23952,-0.02357l0.22287,-0.0908l1.07975,-0.15425l0.9217,-0.15362l0.04948,0.00395l0.04629,-0.01791l1.2652,-0.15816l0.14881,0.01804l0.14543,-0.03635h0.3163l0.14543,0.03635l0.14882,-0.01804l1.11161,0.13895l0.02384,-0.01192l0.06416,0.02292l0.06559,0.0082l0.50832,0.19678l0.51333,0.18333l0.055,0.03666l0.06354,0.0246l0.01024,0.02459l1.29458,0.86305l0.28826,0.31709l0.32623,0.2779l0.5994,0.83914l0.53366,0.42693l0.1288,0.16906l0.17457,0.12122l1.05504,1.20576l0.7349,0.7349l0.24079,0.40131l0.1575,0.09l0.07393,0.29572l0.15682,0.26137l-0.04773,0.17501l0.01619,0.06474l0.09732,0.07298l0.0498,0.0613l0.07224,0.01243l0.30508,0.45197l0.34387,0.42321l-0.00909,0.07274l0.04419,0.06547l0.60445,1.6622l0.59913,1.34805l0.03583,0.20472l0.0978,0.18338l0.3163,1.26521v0.29203l0.07082,0.28331v1.89781l-0.0445,0.17802l0.01691,0.18271l-0.28871,1.87666v0.13826l0.01478,0.02217l-0.01478,0.0665v0.0661l-0.13221,0.52881l-0.11824,0.5321l-0.02956,0.05913l-0.01653,0.0661l-0.02313,0.01322l-1.10442,2.20884l-0.41562,1.38539l-0.17995,0.30265l-0.11843,0.33158l-0.9489,1.42336l-0.10764,0.09785l-0.06506,0.13011l-0.46294,0.54008l-0.11907,0.59541l-0.12645,0.26695l0.02317,0.14771l-0.2462,0.32314l-0.17391,0.36714l-0.14184,0.04729l-0.17902,0.23496l-0.55559,0.44447l-0.76821,1.02428l-0.04832,0.03925l-0.02706,0.05607l-0.6145,0.73739l-0.02101,0.04202l0.0025,0.03627l-0.41281,0.45409l-0.39939,0.46595l-0.0363,0.00202l-0.47899,0.31933l-0.2,0.33333l-0.26128,0.26128l-0.21077,0.30351l-1.10659,0.96826l-0.50093,0.62617l-0.26089,0.19878l-0.21269,0.24968l-1.10706,0.79075l-0.17507,0.06897l-0.14287,0.12246l-0.44128,0.22064l-0.38996,0.29247l-0.9313,0.81489l-0.26141,0.28755l-0.39938,0.46596l-0.03631,0.00202l-0.44838,0.29892l-0.2984,0.10657l-0.16315,0.10382l-0.75843,0.75842l-0.16135,0.09681l-0.1208,0.14428l-1.73965,1.26521l-0.15515,0.06266l-0.05402,0.09454l-0.4727,0.11818l-0.45181,0.18245l-0.09929,-0.04468l-0.13238,0.0331l-0.34325,0.14711l-0.8314,0.71263l-0.8009,0.40046l-0.09567,0.09983h-0.10398l-0.09301,0.0465l-0.13021,-0.0465h-0.89544l-0.63261,-0.15816l-0.01189,-0.00635l-0.04179,0.01139l-0.50523,-0.30313l-0.51988,-0.27727l-0.01172,-0.0417l-0.01156,-0.00693l-0.3163,-0.3163l-0.08785,-0.14641l-0.13252,-0.10768l-0.90707,-1.20943l-1.53972,-1.81967z" fill="#9d76b9" stroke="none" stroke-width="0.5"/><path d="M52.95987,309.19942c0,2.22728 -1.62855,4.03285 -3.63747,4.03285c-2.00892,0 -3.63747,-1.80557 -3.63747,-4.03285c0,-2.22728 1.62855,-4.03284 3.63747,-4.03284c2.00892,0 3.63747,1.80556 3.63747,4.03284z" fill="#d79fff" stroke="#ffddcf" stroke-width="0"/><path d="M48.19257,333.09939c-0.67082,0.33541 -1.00623,-0.33541 -1.00623,-0.33541l-0.06433,-0.14161c-0.81947,-1.23018 -2.21263,-3.25137 -3.63128,-3.82193c-3.54458,-1.42559 -7.34529,0.92109 -9.39747,3.33845c0,0 -0.48809,0.56944 -1.05753,0.08135c-0.56944,-0.48809 -0.08135,-1.05754 -0.08135,-1.05754c2.48264,-2.8728 6.8939,-5.33258 11.04699,-3.77266c1.74658,0.65602 3.37764,2.9148 4.36872,4.40029l0.1579,0.30284c0,0 0.33541,0.67082 -0.33541,1.00623z" fill="#000000" stroke="none" stroke-width="0.5"/><path d="M33.32938,313.20635c0,-0.78241 0.55964,-1.41667 1.25,-1.41667c0.69036,0 1.25,0.63426 1.25,1.41667c0,0.78241 -0.55964,1.41667 -1.25,1.41667c-0.69036,0 -1.25,-0.63426 -1.25,-1.41667z" fill="#000000" stroke="none" stroke-width="0.5"/><path d="M43.5516,312.53968c0,-0.72104 0.58451,-1.30556 1.30556,-1.30556c0.72104,0 1.30556,0.58451 1.30556,1.30556c0,0.72104 -0.58451,1.30556 -1.30556,1.30556c-0.72104,0 -1.30556,-0.58451 -1.30556,-1.30556z" fill="#000000" stroke="none" stroke-width="0.5"/><path d="M37.38492,315.09524c0,-0.19489 0.15193,-0.23785 0.21891,-0.24732c0.35256,-0.54043 0.70028,-0.17239 0.77054,0.35666c0.01064,-0.00138 0.02148,-0.00209 0.0325,-0.00209c0.13807,0 0.25,0.11193 0.25,0.25c0,0.0184 -0.00199,0.03634 -0.00576,0.05361l-0.09613,0.48543l-0.02109,-0.00418l-0.00156,0.0064c-0.28099,1.38263 -1.79165,2.01447 -3.25707,2.30998c-0.55922,0.25397 -1.21481,0.23417 -1.99217,-0.02625l-0.01641,-0.01607l-0.00347,0.00636l-0.43462,-0.23674c-0.08014,-0.04165 -0.13488,-0.12542 -0.13488,-0.22198c0,-0.13807 0.11193,-0.25 0.25,-0.25c0.02364,0 0.04652,0.00328 0.0682,0.00942l0.24128,0.06253l-0.0061,0.02355c0.6425,-0.0442 1.3977,-0.01329 2.1185,-0.05696c0.09151,-0.04595 0.18807,-0.09348 0.2925,-0.14081c-0.47471,0.00453 -0.93531,0.0421 -1.38254,-0.00727c-0.11301,0.00459 -0.23369,0.00684 -0.36285,0.00684h-0.5c-0.13807,0 -0.25,-0.11193 -0.25,-0.25c0,-0.01632 0.00156,-0.03227 0.00455,-0.04772c-0.63995,-0.06754 -1.2785,-0.14673 -1.97677,-0.14673c0,0 -0.14559,0 -0.21456,-0.1111c-0.00256,-0.00001 -0.00512,-0.00001 -0.00766,-0.00001l-0.25,-0.47222c0,0 0,-0.25 0.25,-0.25c0.19775,0 0.23908,0.15642 0.24772,0.2218c0.72241,-0.00226 1.43853,-0.01199 2.14593,0.01306c-0.25015,-0.12748 -0.47107,-0.29597 -0.69015,-0.51747c-0.71184,-0.36516 -1.30903,-0.81314 -1.57886,-1.23297c-0.15242,-0.05466 -0.15242,-0.23442 -0.15242,-0.23442l0.03231,-0.01077c-0.01725,-0.05291 -0.02818,-0.10496 -0.03231,-0.1559l0.25,0.08333l0.25,-0.08333c-0.00875,0.05722 -0.00921,0.11252 -0.00196,0.16601l0.00196,0.00065c0,0 0,0.00358 -0.00043,0.00989c0.03916,0.25256 0.25061,0.46458 0.5706,0.64696c-0.17753,-0.24726 -0.36849,-0.5295 -0.58374,-0.8515c0,0 -0.13868,-0.20801 0.06934,-0.34669c0.20801,-0.13868 0.34669,0.06934 0.34669,0.06934c0.45019,0.67698 0.7631,1.15841 1.06498,1.5005c0.97562,0.31161 2.23351,0.52253 3.11899,0.74458c0.1596,-0.3888 0.30341,-0.84341 0.51569,-1.1406c0,0 0.14531,-0.20343 0.34874,-0.05812c0.20343,0.14531 0.05812,0.34874 0.05812,0.34874c-0.22355,0.31297 -0.39471,0.58666 -0.54432,0.8239l0.20507,0.03474c0.1202,0.01816 0.21234,0.12191 0.21234,0.24718c0,0.12548 -0.09245,0.22937 -0.21295,0.24727l-0.30912,0.05152c0.01843,0.03485 0.02887,0.07457 0.02887,0.11674c0,0.03252 -0.00621,0.06359 -0.01751,0.09209c0.10614,0.02889 0.18417,0.12595 0.18417,0.24124c0,0.06349 -0.02366,0.12145 -0.06265,0.16554l-0.08607,0.09837c0.46672,-0.10492 0.88083,-0.28343 1.18923,-0.58957c-0.08916,-0.0382 -0.15162,-0.12676 -0.15162,-0.2299c0,-0.04199 0.01035,-0.08156 0.02864,-0.1163l0.22136,-0.44272l0.023,0.0115c0.08082,-0.34273 0.17421,-0.70943 0.24052,-0.88739l-0.26353,0.12934c0,0 -0.25,0 -0.25,-0.25z" fill="#000000" stroke="none" stroke-width="0.5"/><path d="M44.86234,316.67857c0.12681,0.44477 0.24609,0.72876 0.6897,1.06318c1.46453,1.16696 0.76568,-0.00404 0.03507,-1.08454c-0.20291,0.01686 -0.41475,0.02136 -0.6744,0.02136zM47.21158,317.92669c0.23766,1.19645 -1.62009,0.469 -1.96436,0.2114c-0.4005,-0.31316 -2.22973,-3.64615 -1.75719,-3.86738c0.35206,-0.16483 1.7045,0.12373 2.18928,0.02805c0.39463,-0.07789 0.95927,-0.45364 1.44079,-0.78902l-0.01549,-0.01549l0.35355,-0.35355c0.04524,-0.04524 0.10774,-0.07322 0.17678,-0.07322c0.13807,0 0.25,0.11193 0.25,0.25c0,0.00317 -0.00006,0.00634 -0.00018,0.00948l-0.01301,0.3973l-0.0058,-0.00019l0.00428,0.02071c-0.34562,1.36311 -1.57186,1.13194 -2.74774,1.15881l0.08109,0.32435c0.11571,0.17867 0.32512,0.42999 0.56657,0.71196c0.09513,0.03708 0.19882,0.07762 0.31226,0.12532l0.31077,0.13067c0.09277,0.03654 0.15843,0.12695 0.15843,0.2327c0,0.1079 -0.06835,0.19983 -0.16412,0.23486c0.40565,0.48769 0.76517,0.96659 0.8241,1.26326zM44.43281,315.54688c-0.02295,-0.12325 -0.0002,-0.26196 0.08107,-0.42125l-0.08696,-0.05797l0.07638,-0.11457c-0.08543,0.01347 -0.16963,0.03031 -0.25218,0.05133c0,0 -0.2407,0.06017 -0.30247,-0.17915c-0.08379,-0.0301 -0.16049,-0.06685 -0.22861,-0.11063c-0.17565,-0.1129 0.31299,0.27978 0.44156,0.44431c0.1065,0.13628 0.19519,0.26233 0.27121,0.38793zM45.08196,316.17521c-0.20471,-0.10292 -0.37939,-0.21334 -0.49716,-0.34195c0.04978,0.10846 0.09346,0.22169 0.13399,0.34531h0.19392c0.05884,0 0.11511,-0.00143 0.16925,-0.00336zM47.31384,313.91737c-0.13077,0.15003 -0.30406,0.2888 -0.50511,0.41247c0.23379,-0.08053 0.41425,-0.20895 0.50511,-0.41247z" fill="#000000" stroke="none" stroke-width="0.5"/></g></g></svg>