<svg version="1.1" xmlns="http://www.w3.org/2000/svg" xmlns:xlink="http://www.w3.org/1999/xlink" width="460.51187" height="344.77059" viewBox="0,0,460.51187,344.77059"><defs><radialGradient cx="446.57142" cy="324.71429" r="22.64939" gradientUnits="userSpaceOnUse" id="color-1"><stop offset="0" stop-color="#ffb5b5" stop-opacity="0"/><stop offset="1" stop-color="#ffb5b5"/></radialGradient><radialGradient cx="436.42609" cy="342.07563" r="3.71429" gradientUnits="userSpaceOnUse" id="color-2"><stop offset="0" stop-color="#cc0000"/><stop offset="1" stop-color="#ffb5b5"/></radialGradient><radialGradient cx="454.59521" cy="304.65079" r="2.92857" gradientUnits="userSpaceOnUse" id="color-3"><stop offset="0" stop-color="#cc0000"/><stop offset="1" stop-color="#ffb5b5"/></radialGradient><radialGradient cx="454.92855" cy="304.65079" r="2.92857" gradientUnits="userSpaceOnUse" id="color-4"><stop offset="0" stop-color="#cc0000"/><stop offset="1" stop-color="#ffb5b5"/></radialGradient><radialGradient cx="425.19243" cy="319.47024" r="2.57143" gradientUnits="userSpaceOnUse" id="color-5"><stop offset="0" stop-color="#cc0000"/><stop offset="1" stop-color="#ffb5b5"/></radialGradient><radialGradient cx="424.70632" cy="319.42857" r="2.57143" gradientUnits="userSpaceOnUse" id="color-6"><stop offset="0" stop-color="#cc0000"/><stop offset="1" stop-color="#ffb5b5"/></radialGradient><radialGradient cx="461.95831" cy="340.57143" r="2.07143" gradientUnits="userSpaceOnUse" id="color-7"><stop offset="0" stop-color="#cc0000"/><stop offset="1" stop-color="#ffb5b5"/></radialGradient><radialGradient cx="461.76783" cy="340.42857" r="2.07143" gradientUnits="userSpaceOnUse" id="color-8"><stop offset="0" stop-color="#cc0000"/><stop offset="1" stop-color="#ffb5b5"/></radialGradient><radialGradient cx="457.86507" cy="308.7619" r="3.42857" gradientUnits="userSpaceOnUse" id="color-9"><stop offset="0" stop-color="#ef7474"/><stop offset="1" stop-color="#ffb5b5"/></radialGradient><radialGradient cx="448.35714" cy="345" r="3.07143" gradientUnits="userSpaceOnUse" id="color-10"><stop offset="0" stop-color="#ef7474"/><stop offset="1" stop-color="#ffb5b5"/></radialGradient><radialGradient cx="448.78571" cy="345" r="3.07143" gradientUnits="userSpaceOnUse" id="color-11"><stop offset="0" stop-color="#ef7474"/><stop offset="1" stop-color="#ffb5b5"/></radialGradient><radialGradient cx="439.53174" cy="344.49524" r="3.28571" gradientUnits="userSpaceOnUse" id="color-12"><stop offset="0" stop-color="#ef7474"/><stop offset="1" stop-color="#ffb5b5"/></radialGradient><radialGradient cx="439.92857" cy="344.97143" r="3.28571" gradientUnits="userSpaceOnUse" id="color-13"><stop offset="0" stop-color="#ef7474"/><stop offset="1" stop-color="#ffb5b5"/></radialGradient></defs><g transform="translate(-9.91668,-6.49076)"><g data-paper-data="{&quot;isPaintingLayer&quot;:true}" fill-rule="nonzero" stroke-linejoin="miter" stroke-miterlimit="10" stroke-dasharray="" stroke-dashoffset="0" style="mix-blend-mode: normal"><path d="M37.74603,336.65078v-28.0128h155.58193l-15.21559,28.0128z" fill="#5d3350" stroke="#5d3350" stroke-width="12" stroke-linecap="butt"/><path d="M37.74603,336.65078v-28.0128h155.58193l-15.21559,28.0128z" fill="#5d3350" stroke="none" stroke-width="NaN" stroke-linecap="butt"/><path d="M30.4127,336.65079v-28.0128h61.2486l-5.98999,28.0128z" fill="#e240af" stroke="none" stroke-width="NaN" stroke-linecap="butt"/><path d="M37.74603,336.6508v-28.01281h155.58193l-15.21559,28.01281z" fill="none" stroke="#ffb58b" stroke-width="5.5" stroke-linecap="butt"/><path d="M32.9029,337.55575l-0.03128,-0.03179l-0.05784,-0.00322l-0.33198,-0.3873l-0.00247,-0.00062l-0.00389,-0.0068l-0.03148,-0.03673l-0.19499,-0.19819l-0.26095,-0.15657l-0.79076,-0.79076l-0.14481,-0.24134l-0.42636,-0.2274l-0.18458,-0.01025l-0.13924,-0.16244l-0.18878,-0.10069l-0.05005,-0.17795l-0.33354,-0.38914l-0.2723,-0.2723l-0.06873,-0.11455l-0.10626,-0.08096l-0.2779,-0.34737l-0.10486,-0.12685l-0.07368,-0.08595l-2.09887,-1.53918l-0.16147,-0.19443l-0.20871,-0.14254l-2.53041,-2.84672l-0.14503,-0.27744l-0.11967,-0.13961l-0.58859,-0.5886l-0.09681,-0.16136l-0.14428,-0.12079l-1.2652,-1.73966l-0.12466,-0.30867l-0.18624,-0.27592l-0.63261,-1.73966l-0.00341,-0.03274l-0.01768,-0.02778l-0.9489,-2.84672l-0.00713,-0.09274l-0.04377,-0.08208l-0.12538,-0.50151l-0.42701,-1.1387l-0.02065,-0.18069l-0.07951,-0.16355l-0.63261,-3.00486l0.0093,-0.24797l-0.06019,-0.24074v-2.37227l0.10008,-0.4003l0.04275,-0.4104l0.62165,-1.70954l0.09907,-0.29721l-0.00701,-0.02571l0.03505,-0.05842l0.0209,-0.06271l0.29265,-0.45986l0.28044,-0.46741l0.04674,-0.04674l0.03658,-0.05748l0.02613,-0.00522l0.47904,-0.47904l1.38162,-1.53514l0.27544,-0.18562l0.23056,-0.23909l1.23563,-0.77227l0.44543,-0.29695l0.35912,-0.12826l0.33259,-0.18657l1.73966,-0.47445l0.31287,-0.00666l0.18023,-0.16384l0.05201,-0.09101l0.06636,-0.01659l0.05061,-0.04601l0.10458,0.00721l0.96458,-0.24114h2.84671l0.33585,0.08396l0.34581,0.01609l2.86263,0.85878l0.04874,-0.02568l0.53021,0.17674l0.5422,0.13555l0.0319,0.05581l0.05559,0.01853l1.63641,1.04136l0.20684,0.10343l0.28954,0.24817l0.327,0.1962l0.37852,0.37852l0.94463,-0.94464l0.47499,-0.83122l0.21924,-0.22877l0.16302,-0.2717l0.63261,-0.6326l0.09404,-0.05643l0.06471,-0.08856l0.72711,-0.60592l0.08138,-0.09495l0.03558,-0.17787l0.25715,-0.16365l0.19837,-0.23143l0.18112,-0.01006l0.39484,-0.25126l0.92497,-0.30833l2.19035,-0.78226l0.23951,-0.02356l0.22288,-0.0908l1.07975,-0.15426l0.9217,-0.15361l0.04948,0.00395l0.04628,-0.01791l1.2652,-0.15816l0.14881,0.01804l0.14543,-0.03636h0.3163l0.14543,0.03636l0.14882,-0.01804l1.11162,0.13896l0.02383,-0.01191l0.06416,0.02291l0.06559,0.0082l0.50832,0.19677l0.51333,0.18333l0.055,0.03667l0.06355,0.02459l0.01024,0.0246l1.29457,0.86305l0.28826,0.31709l0.32623,0.2779l0.59939,0.83914l0.53367,0.42694l0.1288,0.16906l0.17457,0.12122l1.05504,1.20577l0.7349,0.7349l0.24079,0.40131l0.1575,0.09001l0.07393,0.29571l0.15682,0.26138l-0.04773,0.17501l0.01619,0.06473l0.09732,0.07299l0.0498,0.0613l0.07224,0.01243l0.30508,0.45197l0.34386,0.42321l-0.00909,0.07274l0.04418,0.06546l0.60444,1.66221l0.59913,1.34805l0.03583,0.20472l0.0978,0.18338l0.3163,1.26521v0.29204l0.07083,0.28332v1.89781l-0.0445,0.17801l0.01691,0.1827l-0.28871,1.87666v0.13826l0.01478,0.02217l-0.01478,0.06652v0.0661l-0.1322,0.52881l-0.11824,0.5321l-0.02957,0.05912l-0.01652,0.0661l-0.02314,0.01322l-1.10442,2.20884l-0.41562,1.38539l-0.17994,0.30265l-0.11843,0.33158l-0.9489,1.42336l-0.10763,0.09785l-0.06505,0.13011l-0.46294,0.54009l-0.11908,0.59542l-0.12645,0.26695l0.02317,0.1477l-0.24621,0.32314l-0.1739,0.36714l-0.14184,0.04728l-0.17902,0.23496l-0.55559,0.44447l-0.76821,1.02427l-0.04832,0.03926l-0.02707,0.05606l-0.61449,0.73739l-0.02101,0.04202l0.0025,0.03628l-0.41282,0.45409l-0.39938,0.46594l-0.03631,0.00202l-0.47899,0.31932l-0.2,0.33333l-0.26129,0.26129l-0.21077,0.3035l-1.10659,0.96827l-0.50093,0.62617l-0.26089,0.19878l-0.21269,0.24967l-1.10705,0.79075l-0.17507,0.06896l-0.14287,0.12246l-0.44128,0.22064l-0.38997,0.29247l-0.93131,0.81489l-0.2614,0.28755l-0.39938,0.46595l-0.03631,0.00202l-0.44839,0.29892l-0.2984,0.10658l-0.16314,0.10381l-0.75842,0.75842l-0.16135,0.09681l-0.12079,0.14427l-1.73966,1.2652l-0.15514,0.06266l-0.05403,0.09454l-0.4727,0.11817l-0.45181,0.18246l-0.09929,-0.04469l-0.13238,0.0331l-0.34326,0.14711l-0.8314,0.71263l-0.80091,0.40045l-0.09566,0.09982h-0.10399l-0.09301,0.04651l-0.1302,-0.04651h-0.89544l-0.6326,-0.15814l-0.0119,-0.00635l-0.04178,0.01139l-0.50523,-0.30314l-0.51989,-0.27727l-0.01172,-0.0417l-0.01157,-0.00693l-0.3163,-0.3163l-0.08785,-0.14641l-0.13252,-0.10768l-0.90708,-1.20943l-1.53972,-1.81967z" fill="#ff4a5c" stroke="#ffddcf" stroke-width="16.5" stroke-linecap="butt"/><path d="M32.9029,337.55575l-0.03129,-0.03179l-0.05783,-0.00322l-0.33197,-0.3873l-0.00247,-0.00061l-0.00389,-0.0068l-0.03149,-0.03674l-0.19499,-0.19818l-0.26095,-0.15658l-0.79076,-0.79075l-0.14481,-0.24133l-0.42637,-0.22741l-0.18457,-0.01025l-0.13924,-0.16244l-0.18878,-0.10068l-0.05005,-0.17795l-0.33355,-0.38914l-0.2723,-0.2723l-0.06873,-0.11454l-0.10626,-0.08096l-0.2779,-0.34737l-0.10487,-0.12685l-0.07367,-0.08595l-2.09887,-1.53917l-0.16147,-0.19443l-0.20872,-0.14254l-2.53041,-2.84672l-0.14502,-0.27744l-0.11967,-0.13961l-0.58859,-0.5886l-0.09681,-0.16135l-0.14428,-0.1208l-1.2652,-1.73966l-0.12466,-0.30867l-0.18624,-0.27591l-0.63261,-1.73967l-0.0034,-0.03275l-0.01768,-0.02778l-0.9489,-2.84672l-0.00714,-0.09274l-0.04377,-0.08208l-0.12538,-0.50151l-0.42701,-1.13869l-0.02065,-0.18068l-0.07951,-0.16357l-0.6326,-3.00487l0.0093,-0.24797l-0.06019,-0.24074v-2.37226l0.10008,-0.40031l0.04275,-0.41041l0.62165,-1.70953l0.09906,-0.29721l-0.00701,-0.02571l0.03505,-0.05842l0.02089,-0.06271l0.29265,-0.45986l0.28045,-0.4674l0.04674,-0.04675l0.03658,-0.05748l0.02614,-0.00523l0.47904,-0.47904l1.38162,-1.53514l0.27544,-0.18563l0.23055,-0.23909l1.23562,-0.77227l0.44543,-0.29695l0.35913,-0.12826l0.33258,-0.18658l1.73965,-0.47445l0.31289,-0.00666l0.18021,-0.16384l0.05201,-0.09101l0.06635,-0.01659l0.05062,-0.04601l0.10458,0.00721l0.96459,-0.24114h2.84671l0.33585,0.08396l0.34582,0.01608l2.86262,0.85879l0.04874,-0.02567l0.53021,0.17674l0.5422,0.13556l0.03189,0.05581l0.05558,0.01852l1.63641,1.04135l0.20684,0.10343l0.28954,0.24816l0.327,0.19621l0.37852,0.37852l0.94462,-0.94464l0.47499,-0.83122l0.21924,-0.22876l0.16302,-0.2717l0.6326,-0.6326l0.09405,-0.05644l0.06471,-0.08855l0.72712,-0.60593l0.08138,-0.09494l0.03558,-0.17787l0.25717,-0.16365l0.19837,-0.23144l0.18112,-0.01006l0.39484,-0.25126l0.92498,-0.30833l2.19033,-0.78227l0.23952,-0.02356l0.22288,-0.0908l1.07976,-0.15425l0.9217,-0.15362l0.04946,0.00396l0.04628,-0.01792l1.26521,-0.15816l0.14882,0.01804l0.14542,-0.03636h0.3163l0.14543,0.03636l0.14881,-0.01804l1.11162,0.13895l0.02383,-0.01191l0.06417,0.02291l0.06559,0.0082l0.50833,0.19676l0.51332,0.18333l0.055,0.03667l0.06354,0.0246l0.01025,0.0246l1.29456,0.86304l0.28827,0.31709l0.32624,0.2779l0.59938,0.83914l0.53366,0.42694l0.1288,0.16906l0.17457,0.12122l1.05504,1.20577l0.7349,0.73489l0.24078,0.40132l0.1575,0.09l0.07393,0.29572l0.15682,0.26137l-0.04773,0.17501l0.01619,0.06474l0.09732,0.073l0.04981,0.06129l0.07225,0.01243l0.30508,0.45197l0.34386,0.42321l-0.00909,0.07274l0.04419,0.06545l0.60444,1.66221l0.59913,1.34805l0.03582,0.20472l0.09781,0.18338l0.3163,1.26522v0.29203l0.07084,0.28332v1.89781l-0.04451,0.17802l0.01692,0.1827l-0.28872,1.87666v0.13826l0.01478,0.02218l-0.01478,0.06651v0.0661l-0.1322,0.5288l-0.11825,0.5321l-0.02956,0.05912l-0.01652,0.0661l-0.02314,0.01322l-1.10442,2.20884l-0.41562,1.3854l-0.17994,0.30264l-0.11843,0.33159l-0.94891,1.42336l-0.10763,0.09785l-0.06506,0.1301l-0.46294,0.54009l-0.11908,0.59542l-0.12645,0.26695l0.02317,0.14771l-0.2462,0.32314l-0.17391,0.36714l-0.14183,0.04729l-0.17902,0.23496l-0.55559,0.44447l-0.76821,1.02427l-0.04832,0.03927l-0.02707,0.05606l-0.61449,0.73739l-0.02101,0.04201l0.00251,0.03628l-0.41281,0.45409l-0.39938,0.46595l-0.03631,0.00203l-0.47899,0.31931l-0.2,0.33334l-0.26129,0.26128l-0.21077,0.30351l-1.10659,0.96827l-0.50094,0.62618l-0.26089,0.19876l-0.21269,0.24968l-1.10706,0.79076l-0.17507,0.06896l-0.14287,0.12246l-0.44127,0.22064l-0.38997,0.29247l-0.9313,0.81489l-0.2614,0.28754l-0.39937,0.46595l-0.03632,0.00201l-0.44839,0.29892l-0.29839,0.10657l-0.16315,0.10381l-0.75842,0.75842l-0.16136,0.09681l-0.12078,0.14428l-1.73965,1.2652l-0.15514,0.06266l-0.05403,0.09454l-0.4727,0.11818l-0.45181,0.18246l-0.09929,-0.04468l-0.13239,0.0331l-0.34326,0.14711l-0.8314,0.71262l-0.80091,0.40044l-0.09567,0.09983h-0.10398l-0.093,0.04651l-0.13021,-0.04651h-0.89543l-0.6326,-0.15815l-0.0119,-0.00635l-0.04179,0.01139l-0.50523,-0.30313l-0.51987,-0.27727l-0.01172,-0.0417l-0.01157,-0.00693l-0.31629,-0.3163l-0.08784,-0.14641l-0.13253,-0.10767l-0.90708,-1.20944l-1.53972,-1.81967z" fill="#ff4a5c" stroke="#5d347a" stroke-width="8.5" stroke-linecap="butt"/><path d="M32.9029,337.44464l-0.03128,-0.03179l-0.05783,-0.00322l-0.33197,-0.3873l-0.00247,-0.00061l-0.00388,-0.0068l-0.03149,-0.03674l-0.19499,-0.19818l-0.26095,-0.15657l-0.79075,-0.79075l-0.1448,-0.24134l-0.42638,-0.2274l-0.18457,-0.01026l-0.13924,-0.16244l-0.18878,-0.10068l-0.05005,-0.17795l-0.33355,-0.38914l-0.2723,-0.2723l-0.06873,-0.11454l-0.10626,-0.08096l-0.2779,-0.34738l-0.10486,-0.12685l-0.07367,-0.08596l-2.09887,-1.53918l-0.16147,-0.19443l-0.20871,-0.14254l-2.53042,-2.84672l-0.14504,-0.27744l-0.11968,-0.13963l-0.58859,-0.58859l-0.0968,-0.16135l-0.14428,-0.1208l-1.2652,-1.73965l-0.12466,-0.30867l-0.18624,-0.27592l-0.63261,-1.73965l-0.00342,-0.03275l-0.01768,-0.02778l-0.9489,-2.84672l-0.00714,-0.09274l-0.04377,-0.08207l-0.12538,-0.50151l-0.427,-1.1387l-0.02065,-0.18068l-0.07951,-0.16357l-0.6326,-3.00487l0.0093,-0.24797l-0.06019,-0.24074v-2.37226l0.10007,-0.40031l0.04275,-0.41041l0.62165,-1.70953l0.09906,-0.29721l-0.00701,-0.02571l0.03505,-0.05842l0.0209,-0.06271l0.29265,-0.45987l0.28044,-0.4674l0.04674,-0.04674l0.03658,-0.05748l0.02614,-0.00522l0.47905,-0.47905l1.38162,-1.53514l0.27544,-0.18563l0.23055,-0.2391l1.23562,-0.77227l0.44544,-0.29695l0.35912,-0.12826l0.33259,-0.18658l1.73965,-0.47445l0.31289,-0.00666l0.18022,-0.16384l0.05201,-0.09102l0.06635,-0.01659l0.05062,-0.04601l0.10458,0.00721l0.96458,-0.24115h2.84671l0.33586,0.08396l0.34581,0.01609l2.86262,0.85879l0.04874,-0.02569l0.53021,0.17674l0.5422,0.13555l0.03189,0.05581l0.05559,0.01853l1.63642,1.04136l0.20684,0.10342l0.28954,0.24818l0.327,0.19619l0.37852,0.37852l0.94464,-0.94463l0.47498,-0.83122l0.21923,-0.22877l0.16302,-0.2717l0.63261,-0.63261l0.09405,-0.05643l0.06471,-0.08855l0.72712,-0.60593l0.08138,-0.09495l0.03558,-0.17788l0.25716,-0.16365l0.19837,-0.23143l0.18112,-0.01006l0.39484,-0.25126l0.92496,-0.30832l2.19035,-0.78226l0.23952,-0.02357l0.22287,-0.0908l1.07975,-0.15425l0.9217,-0.15362l0.04948,0.00395l0.04629,-0.01791l1.2652,-0.15816l0.14881,0.01804l0.14543,-0.03635h0.3163l0.14543,0.03635l0.14882,-0.01804l1.11161,0.13895l0.02384,-0.01192l0.06416,0.02292l0.06559,0.0082l0.50832,0.19678l0.51333,0.18333l0.055,0.03666l0.06354,0.0246l0.01024,0.02459l1.29458,0.86305l0.28826,0.31709l0.32623,0.2779l0.5994,0.83914l0.53366,0.42693l0.1288,0.16906l0.17457,0.12122l1.05504,1.20576l0.7349,0.7349l0.24079,0.40131l0.1575,0.09l0.07393,0.29572l0.15682,0.26137l-0.04773,0.17501l0.01619,0.06474l0.09732,0.07298l0.0498,0.0613l0.07224,0.01243l0.30508,0.45197l0.34387,0.42321l-0.00909,0.07274l0.04419,0.06547l0.60445,1.6622l0.59913,1.34805l0.03583,0.20472l0.0978,0.18338l0.3163,1.26521v0.29203l0.07082,0.28331v1.89781l-0.0445,0.17802l0.01691,0.18271l-0.28871,1.87666v0.13826l0.01478,0.02217l-0.01478,0.0665v0.0661l-0.13221,0.52881l-0.11824,0.5321l-0.02956,0.05913l-0.01653,0.0661l-0.02313,0.01322l-1.10442,2.20884l-0.41562,1.38539l-0.17995,0.30265l-0.11843,0.33158l-0.9489,1.42336l-0.10764,0.09785l-0.06506,0.13011l-0.46294,0.54008l-0.11907,0.59541l-0.12645,0.26695l0.02317,0.14771l-0.2462,0.32314l-0.17391,0.36714l-0.14184,0.04729l-0.17902,0.23496l-0.55559,0.44447l-0.76821,1.02428l-0.04832,0.03925l-0.02706,0.05607l-0.6145,0.73739l-0.02101,0.04202l0.0025,0.03627l-0.41281,0.45409l-0.39939,0.46595l-0.0363,0.00202l-0.47899,0.31933l-0.2,0.33333l-0.26128,0.26128l-0.21077,0.30351l-1.10659,0.96826l-0.50093,0.62617l-0.26089,0.19878l-0.21269,0.24968l-1.10706,0.79075l-0.17507,0.06897l-0.14287,0.12246l-0.44128,0.22064l-0.38996,0.29247l-0.9313,0.81489l-0.26141,0.28755l-0.39938,0.46596l-0.03631,0.00202l-0.44838,0.29892l-0.2984,0.10657l-0.16315,0.10382l-0.75843,0.75842l-0.16135,0.09681l-0.1208,0.14428l-1.73965,1.26521l-0.15515,0.06266l-0.05402,0.09454l-0.4727,0.11818l-0.45181,0.18245l-0.09929,-0.04468l-0.13238,0.0331l-0.34325,0.14711l-0.8314,0.71263l-0.8009,0.40046l-0.09567,0.09983h-0.10398l-0.09301,0.0465l-0.13021,-0.0465h-0.89544l-0.63261,-0.15816l-0.01189,-0.00635l-0.04179,0.01139l-0.50523,-0.30313l-0.51988,-0.27727l-0.01172,-0.0417l-0.01156,-0.00693l-0.3163,-0.3163l-0.08785,-0.14641l-0.13252,-0.10768l-0.90707,-1.20943l-1.53972,-1.81967z" fill="#9d76b9" stroke="none" stroke-width="0.5" stroke-linecap="butt"/><path d="M52.95987,309.19942c0,2.22728 -1.62855,4.03285 -3.63747,4.03285c-2.00892,0 -3.63747,-1.80557 -3.63747,-4.03285c0,-2.22728 1.62855,-4.03284 3.63747,-4.03284c2.00892,0 3.63747,1.80556 3.63747,4.03284z" fill="#d79fff" stroke="#ffddcf" stroke-width="0" stroke-linecap="butt"/><path d="M48.19257,333.09939c-0.67082,0.33541 -1.00623,-0.33541 -1.00623,-0.33541l-0.06433,-0.14161c-0.81947,-1.23018 -2.21263,-3.25137 -3.63128,-3.82193c-3.54458,-1.42559 -7.34529,0.92109 -9.39747,3.33845c0,0 -0.48809,0.56944 -1.05753,0.08135c-0.56944,-0.48809 -0.08135,-1.05754 -0.08135,-1.05754c2.48264,-2.8728 6.8939,-5.33258 11.04699,-3.77266c1.74658,0.65602 3.37764,2.9148 4.36872,4.40029l0.1579,0.30284c0,0 0.33541,0.67082 -0.33541,1.00623z" fill="#000000" stroke="none" stroke-width="0.5" stroke-linecap="butt"/><path d="M33.32938,313.20635c0,-0.78241 0.55964,-1.41667 1.25,-1.41667c0.69036,0 1.25,0.63426 1.25,1.41667c0,0.78241 -0.55964,1.41667 -1.25,1.41667c-0.69036,0 -1.25,-0.63426 -1.25,-1.41667z" fill="#000000" stroke="none" stroke-width="0.5" stroke-linecap="butt"/><path d="M43.5516,312.53968c0,-0.72104 0.58451,-1.30556 1.30556,-1.30556c0.72104,0 1.30556,0.58451 1.30556,1.30556c0,0.72104 -0.58451,1.30556 -1.30556,1.30556c-0.72104,0 -1.30556,-0.58451 -1.30556,-1.30556z" fill="#000000" stroke="none" stroke-width="0.5" stroke-linecap="butt"/><path d="M37.38492,315.09524c0,-0.19489 0.15193,-0.23785 0.21891,-0.24732c0.35256,-0.54043 0.70028,-0.17239 0.77054,0.35666c0.01064,-0.00138 0.02148,-0.00209 0.0325,-0.00209c0.13807,0 0.25,0.11193 0.25,0.25c0,0.0184 -0.00199,0.03634 -0.00576,0.05361l-0.09613,0.48543l-0.02109,-0.00418l-0.00156,0.0064c-0.28099,1.38263 -1.79165,2.01447 -3.25707,2.30998c-0.55922,0.25397 -1.21481,0.23417 -1.99217,-0.02625l-0.01641,-0.01607l-0.00347,0.00636l-0.43462,-0.23674c-0.08014,-0.04165 -0.13488,-0.12542 -0.13488,-0.22198c0,-0.13807 0.11193,-0.25 0.25,-0.25c0.02364,0 0.04652,0.00328 0.0682,0.00942l0.24128,0.06253l-0.0061,0.02355c0.6425,-0.0442 1.3977,-0.01329 2.1185,-0.05696c0.09151,-0.04595 0.18807,-0.09348 0.2925,-0.14081c-0.47471,0.00453 -0.93531,0.0421 -1.38254,-0.00727c-0.11301,0.00459 -0.23369,0.00684 -0.36285,0.00684h-0.5c-0.13807,0 -0.25,-0.11193 -0.25,-0.25c0,-0.01632 0.00156,-0.03227 0.00455,-0.04772c-0.63995,-0.06754 -1.2785,-0.14673 -1.97677,-0.14673c0,0 -0.14559,0 -0.21456,-0.1111c-0.00256,-0.00001 -0.00512,-0.00001 -0.00766,-0.00001l-0.25,-0.47222c0,0 0,-0.25 0.25,-0.25c0.19775,0 0.23908,0.15642 0.24772,0.2218c0.72241,-0.00226 1.43853,-0.01199 2.14593,0.01306c-0.25015,-0.12748 -0.47107,-0.29597 -0.69015,-0.51747c-0.71184,-0.36516 -1.30903,-0.81314 -1.57886,-1.23297c-0.15242,-0.05466 -0.15242,-0.23442 -0.15242,-0.23442l0.03231,-0.01077c-0.01725,-0.05291 -0.02818,-0.10496 -0.03231,-0.1559l0.25,0.08333l0.25,-0.08333c-0.00875,0.05722 -0.00921,0.11252 -0.00196,0.16601l0.00196,0.00065c0,0 0,0.00358 -0.00043,0.00989c0.03916,0.25256 0.25061,0.46458 0.5706,0.64696c-0.17753,-0.24726 -0.36849,-0.5295 -0.58374,-0.8515c0,0 -0.13868,-0.20801 0.06934,-0.34669c0.20801,-0.13868 0.34669,0.06934 0.34669,0.06934c0.45019,0.67698 0.7631,1.15841 1.06498,1.5005c0.97562,0.31161 2.23351,0.52253 3.11899,0.74458c0.1596,-0.3888 0.30341,-0.84341 0.51569,-1.1406c0,0 0.14531,-0.20343 0.34874,-0.05812c0.20343,0.14531 0.05812,0.34874 0.05812,0.34874c-0.22355,0.31297 -0.39471,0.58666 -0.54432,0.8239l0.20507,0.03474c0.1202,0.01816 0.21234,0.12191 0.21234,0.24718c0,0.12548 -0.09245,0.22937 -0.21295,0.24727l-0.30912,0.05152c0.01843,0.03485 0.02887,0.07457 0.02887,0.11674c0,0.03252 -0.00621,0.06359 -0.01751,0.09209c0.10614,0.02889 0.18417,0.12595 0.18417,0.24124c0,0.06349 -0.02366,0.12145 -0.06265,0.16554l-0.08607,0.09837c0.46672,-0.10492 0.88083,-0.28343 1.18923,-0.58957c-0.08916,-0.0382 -0.15162,-0.12676 -0.15162,-0.2299c0,-0.04199 0.01035,-0.08156 0.02864,-0.1163l0.22136,-0.44272l0.023,0.0115c0.08082,-0.34273 0.17421,-0.70943 0.24052,-0.88739l-0.26353,0.12934c0,0 -0.25,0 -0.25,-0.25z" fill="#000000" stroke="none" stroke-width="0.5" stroke-linecap="butt"/><path d="M44.86234,316.67857c0.12681,0.44477 0.24609,0.72876 0.6897,1.06318c1.46453,1.16696 0.76568,-0.00404 0.03507,-1.08454c-0.20291,0.01686 -0.41475,0.02136 -0.6744,0.02136zM47.21158,317.92669c0.23766,1.19645 -1.62009,0.469 -1.96436,0.2114c-0.4005,-0.31316 -2.22973,-3.64615 -1.75719,-3.86738c0.35206,-0.16483 1.7045,0.12373 2.18928,0.02805c0.39463,-0.07789 0.95927,-0.45364 1.44079,-0.78902l-0.01549,-0.01549l0.35355,-0.35355c0.04524,-0.04524 0.10774,-0.07322 0.17678,-0.07322c0.13807,0 0.25,0.11193 0.25,0.25c0,0.00317 -0.00006,0.00634 -0.00018,0.00948l-0.01301,0.3973l-0.0058,-0.00019l0.00428,0.02071c-0.34562,1.36311 -1.57186,1.13194 -2.74774,1.15881l0.08109,0.32435c0.11571,0.17867 0.32512,0.42999 0.56657,0.71196c0.09513,0.03708 0.19882,0.07762 0.31226,0.12532l0.31077,0.13067c0.09277,0.03654 0.15843,0.12695 0.15843,0.2327c0,0.1079 -0.06835,0.19983 -0.16412,0.23486c0.40565,0.48769 0.76517,0.96659 0.8241,1.26326zM44.43281,315.54688c-0.02295,-0.12325 -0.0002,-0.26196 0.08107,-0.42125l-0.08696,-0.05797l0.07638,-0.11457c-0.08543,0.01347 -0.16963,0.03031 -0.25218,0.05133c0,0 -0.2407,0.06017 -0.30247,-0.17915c-0.08379,-0.0301 -0.16049,-0.06685 -0.22861,-0.11063c-0.17565,-0.1129 0.31299,0.27978 0.44156,0.44431c0.1065,0.13628 0.19519,0.26233 0.27121,0.38793zM45.08196,316.17521c-0.20471,-0.10292 -0.37939,-0.21334 -0.49716,-0.34195c0.04978,0.10846 0.09346,0.22169 0.13399,0.34531h0.19392c0.05884,0 0.11511,-0.00143 0.16925,-0.00336zM47.31384,313.91737c-0.13077,0.15003 -0.30406,0.2888 -0.50511,0.41247c0.23379,-0.08053 0.41425,-0.20895 0.50511,-0.41247z" fill="#000000" stroke="none" stroke-width="0.5" stroke-linecap="butt"/><g data-paper-data="{&quot;index&quot;:null}"><path d="M257.86107,59.50003l-12.27143,-23.80053c0,0 29.37234,-7.05126 29.03554,-7.7495c-0.37048,-0.76808 -32.66702,-1.41944 -32.66702,-1.41944l-1.47328,-3.05435h202.58095l19.91905,36.02381z" data-paper-data="{&quot;index&quot;:null}" fill="#cc8c74" stroke="#ad4054" stroke-width="6" stroke-linecap="butt"/><path d="M257.86107,59.50002l-17.37619,-36.02381h202.58095l19.91905,36.02381z" fill="#cc8c74" stroke="none" stroke-width="0" stroke-linecap="butt"/><path d="M458.73488,53.50002l-123,0.25" fill="none" stroke="#be6c6c" stroke-width="2.5" stroke-linecap="round"/><path d="M311.98488,53.75002l-55.75,0.25" fill="none" stroke="#be6c6c" stroke-width="2.5" stroke-linecap="round"/><path d="M414.48488,38.25001h35" fill="none" stroke="#be6c6c" stroke-width="2.5" stroke-linecap="round"/><path d="M392.73488,38.25001h10.75" fill="none" stroke="#be6c6c" stroke-width="2.5" stroke-linecap="round"/><path d="M385.48488,38.25001h1.5" fill="none" stroke="#be6c6c" stroke-width="2.5" stroke-linecap="round"/><path d="M292.98488,37.50001l-34.75,-0.25" fill="none" stroke="#be6c6c" stroke-width="2.5" stroke-linecap="round"/><path d="M363.23488,27.00002l80.75,0.5" fill="none" stroke="#be6c6c" stroke-width="2.5" stroke-linecap="round"/><path d="M353.48488,27.75002l6,-0.25" fill="none" stroke="#be6c6c" stroke-width="2.5" stroke-linecap="round"/><path d="M262.23488,27.25002h26.25" fill="none" stroke="#be6c6c" stroke-width="2.5" stroke-linecap="round"/><path d="M243.23488,27.75002h14.25" fill="none" stroke="#be6c6c" stroke-width="2.5" stroke-linecap="round"/><path d="M242.02777,26.79293c0.619,-0.41267 1.43574,-0.28003 2.20711,-0.27253v-0.02037h1.5c0.55228,0 1,0.44772 1,1c0,0.55228 -0.44772,1 -1,1h-1.5v-0.00363c-0.17763,0.09994 -0.35817,0.19424 -0.54185,0.28157c-0.00921,0.03461 -0.02044,0.071 -0.03413,0.10828c1.4011,0.17348 2.72834,0.52951 4.13365,1.16228c0.54174,0.24392 1.42533,0.21604 1.60085,0.78364c0.71803,2.32193 -3.33402,3.56176 -4.67966,4.29575l-0.72885,0.1221c0,0 -1,0 -1,-1c0,-0.02978 0.00089,-0.05867 0.00261,-0.0867c-0.15497,-0.70515 0.55017,-1.05772 0.55017,-1.05772c0.38186,-0.17326 0.68615,-0.44907 0.96873,-0.72726c-0.01109,-0.00606 -0.02207,-0.01232 -0.0329,-0.01878l-1.72124,-0.98356l0.01482,-0.02595c-0.05381,-0.02369 -0.10716,-0.04866 -0.16001,-0.07502c-0.15361,-0.07661 -0.29377,-0.22671 -0.42791,-0.39223l-0.21747,-0.13049c-0.22897,-0.0024 -0.46938,-0.00227 -0.72681,-0.00227c0,0 -0.08219,0 -0.19945,-0.02357c-0.19916,0.06706 -0.44842,0.06767 -0.74777,-0.08201c-0.89443,-0.44721 -0.44721,-1.34164 -0.44721,-1.34164l0.90189,-1.02293c0.37652,-0.05604 0.71164,-0.07579 1.01061,-0.05913c-0.01171,-0.06755 -0.01808,-0.14096 -0.01808,-0.22073c0,-0.06033 0.00364,-0.11701 0.01048,-0.17028c-0.01885,-0.41906 -0.02655,-0.83085 0.28242,-1.03683z" fill="#ad4054" stroke="none" stroke-width="0.5" stroke-linecap="butt"/><path d="M462.12628,58.23996c-0.48464,0.06924 -0.76592,-0.13268 -0.92679,-0.35686c-2.58351,-0.84779 -5.03911,-2.16055 -7.64306,-2.64914c-2.23936,-0.42018 -4.09763,-0.89073 -6.07157,-1.49788v0.01393h-2c-0.55228,0 -1,-0.44772 -1,-1c0,-0.55228 0.44772,-1 1,-1h1.48485c3.28962,-0.13301 6.65366,-0.76412 9.79469,-1.77782c0.16552,-0.72218 0.97046,-0.72218 0.97046,-0.72218l0.52139,0.00023c0.13854,0.01301 0.27266,0.03143 0.40253,0.05502c0.13862,-0.04365 0.81832,-0.21914 1.17454,0.40464c2.11711,1.13969 2.66342,4.09074 3.02747,6.59933c0.34323,0.07797 0.6892,0.14681 1.03847,0.20439l1.04271,0.77929c0,0 0.70711,0.7071 0,1.41421c-0.7071,0.70711 -1.41421,0 -1.41421,0l0.04271,-0.22071c-0.43259,-0.07281 -0.85972,-0.16774 -1.28253,-0.27941c-0.05021,0.01362 -0.104,0.02473 -0.16164,0.03297z" fill="#ad4054" stroke="none" stroke-width="0.5" stroke-linecap="butt"/><g stroke-linecap="butt"><path d="M274.35321,62.26017c1.10391,0.17779 1.34768,1.39666 1.34768,1.39666l-0.77666,3.20171c-0.87305,0.29408 -1.71086,1.03621 -2.61915,0.88224c-1.00291,-0.17001 -1.52791,-1.45039 -2.5,-1.75c-0.38608,-0.119 -0.63081,0.5325 -1.01153,0.66768c-0.81757,0.29028 -1.66712,0.58159 -2.53464,0.59141c-2.37165,0.02684 -4.99792,-1.65141 -7.41075,-1.03796c-2.59664,0.66019 -6.2607,1.85391 -8.89506,-0.04839c-1.60545,-1.15931 -3.00984,-5.00412 -2.96822,-6.91348c0.02098,-0.96246 0.21821,-1.96693 0.69518,-2.80315c0.24872,-0.43604 1.51312,-0.26464 1.31863,-0.72742c-0.25707,-0.61168 -1.32359,-0.28092 -1.8886,-0.62878c-0.75005,-0.46179 -3.26782,-3.57423 -3.3284,-3.93859c-0.20151,-1.21204 0.60215,-2.38243 0.90323,-3.57365c3.91633,-1.6223 5.87647,-2.43309 9.67833,-0.09201c1.0344,0.63696 2.45954,1.06149 2.91456,2.18784c0.59082,1.46249 0.44596,3.2039 0.03089,4.73921c2.19471,-1.5204 6.00233,-0.14936 7.87124,1.55812c1.14245,1.04377 1.02441,3.24042 2.3807,3.98549c1.90777,1.04803 3.97862,-1.21894 6.23748,1.13624c0.30299,0.31592 0.4477,0.72982 0.55511,1.16682zM255.64418,55.30613c-0.15441,0.16442 0.45881,0.13669 0.60551,0.31791c0.124,-0.23343 0.26486,-0.442 0.42035,-0.62733c-0.36357,0.06294 -0.79965,0.06854 -1.02586,0.30942z" fill="#62a942" stroke="#2f7971" stroke-width="2"/><path d="M252.23489,54.00003c-0.55228,0 -1,-0.44772 -1,-1c0,-0.50173 0.36949,-0.91715 0.85121,-0.98901c-0.21493,-0.18341 -0.35121,-0.45628 -0.35121,-0.76099c0,-0.55228 0.44772,-1 1,-1c0.55228,0 1,0.44772 1,1c0,0.50173 -0.36949,0.91715 -0.85121,0.98901c0.21493,0.18341 0.35121,0.45628 0.35121,0.76099c0,0.55228 -0.44772,1 -1,1z" fill="#e2cf58" stroke="none" stroke-width="0.5"/><path d="M249.48489,50.50003c-0.55228,0 -1,-0.44772 -1,-1c0,-0.55228 0.44772,-1 1,-1c0.55228,0 1,0.44772 1,1c0,0.55228 -0.44772,1 -1,1z" fill="#e2cf58" stroke="none" stroke-width="0.5"/><path d="M253.73489,58.00003c-0.55228,0 -1,-0.44772 -1,-1c0,-0.55228 0.44772,-1 1,-1c0.55228,0 1,0.44772 1,1c0,0.55228 -0.44772,1 -1,1z" fill="#2f7971" stroke="none" stroke-width="0.5"/><path d="M261.98489,64.25002c-0.55228,0 -1,-0.44772 -1,-1c0,-0.55228 0.44772,-1 1,-1c0.55228,0 1,0.44772 1,1c0,0.55228 -0.44772,1 -1,1z" fill="#2f7971" stroke="none" stroke-width="0.5"/><path d="M260.48489,62.50003c-0.55228,0 -1,-0.44772 -1,-1c0,-0.55228 0.44772,-1 1,-1c0.55228,0 1,0.44772 1,1c0,0.55228 -0.44772,1 -1,1z" fill="#2f7971" stroke="none" stroke-width="0.5"/><path d="M260.73489,66.00002c-0.55228,0 -1,-0.44772 -1,-1c0,-0.23006 0.07769,-0.44198 0.20827,-0.61095c-0.13728,0.07091 -0.2931,0.11095 -0.45827,0.11095c-0.55228,0 -1,-0.44772 -1,-1c0,-0.55228 0.44772,-1 1,-1c0.55228,0 1,0.44772 1,1c0,0.23006 -0.07769,0.44198 -0.20827,0.61095c0.13728,-0.07091 0.2931,-0.11095 0.45827,-0.11095c0.55228,0 1,0.44772 1,1c0,0.55228 -0.44772,1 -1,1z" fill="#2f7971" stroke="none" stroke-width="0.5"/><path d="M262.73489,66.25002c-0.55228,0 -1,-0.44772 -1,-1c0,-0.55228 0.44772,-1 1,-1c0.55228,0 1,0.44772 1,1c0,0.55228 -0.44772,1 -1,1z" fill="#2f7971" stroke="none" stroke-width="0.5"/></g><g stroke-linecap="butt"><path d="M453.97258,40.70863c-0.30824,0.1594 -0.63441,0.27145 -1.00085,0.27709c-3.60776,0.05555 -6.5217,-3.10476 -7.62698,-5.53558c-0.17767,-0.39074 0.31253,-0.93086 -0.03843,-1.24289c-0.49515,-0.44022 -1.45724,-0.34292 -2.09465,-0.65357c-1.58243,-0.7712 -3.37309,-1.50571 -4.35448,-2.74071c-0.39398,-0.4958 1.07576,-1.905 0.36244,-1.72529c-2.40268,0.60533 -5.86297,0.16739 -8.26283,-0.66433c-0.3923,-0.13597 -0.3146,-0.72341 -0.72188,-0.82952c-0.24739,-0.06445 -0.10671,0.41042 -0.26256,0.57304c-0.47733,0.49802 -0.88306,1.12217 -1.60976,1.3805c-1.26267,0.44886 -2.7217,0.42866 -4.08255,0.64299c-3.02208,0.23215 -8.1499,0.73797 -10.58883,-1.29224c-0.64875,-0.54003 -0.5509,-2.35242 -1.71942,-2.91523c-2.58439,-1.24475 -5.94209,-0.73338 -8.22431,-2.47844c-2.57899,-1.97199 -3.73563,-5.05095 -0.14094,-6.80013c2.41624,-1.17575 8.28561,-1.17043 10.91243,-0.70163c0.63433,0.11321 0.91178,0.8052 1.54238,0.93033c1.61288,0.32005 3.17455,-0.81593 4.81835,-1.01998c1.91165,-0.23729 4.0575,0.45067 5.80185,-0.20174c0.77153,-0.28856 1.02938,-1.06347 1.54408,-1.59522c0.94231,-1.66098 1.33206,-2.8705 3.55595,-3.98103c1.11159,-0.55509 2.50291,-0.659 3.75796,-0.98011c5.10242,-1.30547 9.13384,-2.54194 12.87068,1.33147c2.86473,2.96943 0.73435,5.80943 2.84978,8.66984c0.34064,0.4606 0.85649,0.83331 1.19851,1.29329c0.21754,0.29258 0.06606,0.81556 0.4669,0.94657c0.90848,0.29693 2.05997,-0.16138 2.94864,0.16979c1.54948,0.57744 3.85327,3.69246 3.57049,4.95839c-0.14416,0.64533 -1.04557,1.02755 -1.56835,1.54133c0.05041,0.85206 -0.47919,1.8507 0.13688,2.55663c1.02904,1.17915 2.59177,2.29361 2.72033,3.71482c0.08077,0.89284 -1.72319,6.11158 -3.16625,6.49753c-1.13686,0.30405 -2.38488,0.1152 -3.5946,-0.12597z" fill="#62a942" stroke="#2f7971" stroke-width="5.5"/><path d="M452.97172,40.98572c-3.60776,0.05555 -6.5217,-3.10476 -7.62698,-5.53558c-0.17767,-0.39074 0.31254,-0.93086 -0.03843,-1.24289c-0.49515,-0.44022 -1.45724,-0.34292 -2.09465,-0.65357c-1.58243,-0.7712 -3.37309,-1.50571 -4.35448,-2.74071c-0.39398,-0.4958 1.07576,-1.905 0.36244,-1.72529c-2.40268,0.60533 -5.86297,0.16739 -8.26283,-0.66433c-0.3923,-0.13597 -0.31461,-0.72341 -0.72188,-0.82952c-0.24739,-0.06445 -0.1067,0.41042 -0.26256,0.57304c-0.47733,0.49802 -0.88306,1.12217 -1.60976,1.3805c-1.26267,0.44886 -2.7217,0.42866 -4.08255,0.64299c-3.02208,0.23215 -8.1499,0.73797 -10.58883,-1.29224c-0.64875,-0.54003 -0.5509,-2.35242 -1.71942,-2.91523c-2.58439,-1.24475 -5.94209,-0.73338 -8.22431,-2.47844c-2.57899,-1.97199 -3.73563,-5.05095 -0.14094,-6.80013c2.41624,-1.17575 8.28561,-1.17043 10.91243,-0.70163c0.63433,0.11321 0.91178,0.8052 1.54238,0.93033c1.61288,0.32005 3.17455,-0.81593 4.81835,-1.01998c1.91165,-0.23729 4.0575,0.45067 5.80185,-0.20174c0.77153,-0.28856 1.02938,-1.06347 1.54408,-1.59522c0.94231,-1.66098 1.33206,-2.8705 3.55595,-3.98103c1.11159,-0.55509 2.50291,-0.659 3.75796,-0.98011c5.10242,-1.30547 9.13384,-2.54194 12.87068,1.33147c2.86473,2.96943 0.73435,5.80943 2.84978,8.66984c0.34064,0.4606 0.85649,0.83331 1.19851,1.29329c0.21754,0.29258 0.06606,0.81556 0.4669,0.94657c0.90848,0.29693 2.05997,-0.16138 2.94864,0.16979c1.54948,0.57744 3.85327,3.69246 3.57049,4.95839c-0.14416,0.64533 -1.04557,1.02755 -1.56835,1.54133c0.05041,0.85206 -0.47918,1.8507 0.13688,2.55663c1.02905,1.17915 2.59178,2.29361 2.72034,3.71482c0.08076,0.89284 -1.7232,6.11158 -3.16626,6.49753c-1.13685,0.30405 -2.38487,0.1152 -3.59459,-0.12597c-0.30823,0.1594 -0.6344,0.27145 -1.00084,0.27709z" fill="#62a942" stroke="none" stroke-width="0.5"/><path d="M432.48489,13.80091c-0.55228,0 -1,-0.34791 -1,-0.77707c0,-0.42916 0.44772,-0.77707 1,-0.77707c0.55228,0 1,0.34791 1,0.77707c0,0.42916 -0.44772,0.77707 -1,0.77707z" fill="#e2cf58" stroke="none" stroke-width="0.5"/><path d="M434.48489,17.10343c-0.55228,0 -1,-0.34791 -1,-0.77707c0,-0.42916 0.44772,-0.77707 1,-0.77707c0.55228,0 1,0.34791 1,0.77707c0,0.42916 -0.44772,0.77707 -1,0.77707z" fill="#e2cf58" stroke="none" stroke-width="0.5"/><path d="M431.48489,16.13209c-0.55228,0 -1,-0.34791 -1,-0.77707c0,-0.42916 0.44772,-0.77707 1,-0.77707c0.55228,0 1,0.34791 1,0.77707c0,0.42916 -0.44772,0.77707 -1,0.77707z" fill="#e2cf58" stroke="none" stroke-width="0.5"/><path d="M447.73489,34.39316c0.55228,0 1,0.34791 1,0.77707c0,0.42916 -0.44772,0.77707 -1,0.77707c-0.55228,0 -1,-0.34791 -1,-0.77707c-0.55228,0 -1,-0.34791 -1,-0.77707c0,-0.42916 0.44772,-0.77707 1,-0.77707c0.55228,0 1,0.34791 1,0.77707z" fill="#2f7971" stroke="none" stroke-width="0.5"/><path d="M449.98489,34.97596c-0.55228,0 -1,-0.34791 -1,-0.77707c0,-0.42916 0.44772,-0.77707 1,-0.77707c0.55228,0 1,0.34791 1,0.77707c0,0.42916 -0.44772,0.77707 -1,0.77707z" fill="#2f7971" stroke="none" stroke-width="0.5"/><path d="M426.23489,27.39956c-0.55228,0 -1,-0.34791 -1,-0.77707c0,-0.42916 0.44772,-0.77707 1,-0.77707c0.55228,0 1,0.34791 1,0.77707c0,0.42916 -0.44772,0.77707 -1,0.77707z" fill="#2f7971" stroke="none" stroke-width="0.5"/><path d="M425.98489,29.14796c-0.55228,0 -1,-0.34791 -1,-0.77707c0,-0.42916 0.44772,-0.77707 1,-0.77707c0.55228,0 1,0.34791 1,0.77707c0,0.42916 -0.44772,0.77707 -1,0.77707z" fill="#2f7971" stroke="none" stroke-width="0.5"/><path d="M428.73489,28.37088c-0.55228,0 -1,-0.34791 -1,-0.77707c0,-0.42916 0.44772,-0.77707 1,-0.77707c0.55228,0 1,0.34791 1,0.77707c0,0.42916 -0.44772,0.77707 -1,0.77707z" fill="#2f7971" stroke="none" stroke-width="0.5"/></g></g><g><path d="M18.35716,41.69653l11.23161,-6.88389l-1.26808,-13.40547l21.01398,-8.51429l11.59391,10.14468l-5.6158,12.68085l-11.95623,4.52888l-6.34042,8.87659l-14.31124,-5.79696z" fill="none" stroke="#ffffff" stroke-width="4.5" stroke-linecap="round"/><path d="M18.35713,41.69651l11.23161,-6.88389l-1.26808,-13.40547l21.01398,-8.51429l11.59392,10.14468l-5.6158,12.68085l-11.95623,4.52888l-6.34042,8.87659l-14.31124,-5.79696z" fill="#fffe31" stroke="#ff8730" stroke-width="1.5" stroke-linecap="round"/><path d="M29.58876,21.76946l15.57932,6.88389l1.44924,5.43464l-7.42735,3.98541l-2.89847,8.87659l-15.21702,-5.79696l9.60122,-5.79696z" fill="#ffcd30" stroke="#ffcd30" stroke-width="1.5" stroke-linecap="round"/><path d="M42.99422,28.29103l10.68814,-2.35501l-10.8693,6.34042z" fill="#ffcd30" stroke="#ffcd30" stroke-width="1.5" stroke-linecap="round"/><path d="M41.72613,22.13176v-5.6158h8.15197v5.6158z" fill="#fff7db" stroke="#ffcd30" stroke-width="0" stroke-linecap="butt"/><path d="M20.71216,42.96459l6.70273,-4.34772l-3.26079,5.43464z" fill="#ff8730" stroke="#ff8730" stroke-width="0.5" stroke-linecap="round"/><path d="M29.58876,45.31961l2.53617,-1.08693l-0.90578,2.89847z" fill="#ff8730" stroke="#ff8730" stroke-width="0.5" stroke-linecap="round"/><path d="M30.14922,21.33472l5.68353,9.25076l-4.15407,3.88606z" fill="#ff8730" stroke="#ff8730" stroke-width="0.5" stroke-linecap="round"/><path d="M18.35715,41.69651l11.23161,-6.88389l-1.26808,-13.40547l21.01398,-8.51429l11.59391,10.14468l-5.6158,12.68085l-11.95623,4.52888l-6.34042,8.87659l-14.31124,-5.79696z" fill="none" stroke="#ff8730" stroke-width="1.5" stroke-linecap="round"/></g><path d="M469.42855,324.3523c0,12.7644 -10.28946,23.11199 -22.98214,23.11199c-12.69269,0 -22.98214,-10.34758 -22.98214,-23.11199c0,-12.7644 10.28946,-23.11199 22.98214,-23.11199c12.69269,0 22.98214,10.34758 22.98214,23.11199z" fill="#ffffff" stroke="#000000" stroke-width="2" stroke-linecap="butt"/><path d="M468.92857,324.71429c0,12.38696 -10.00963,22.42857 -22.35714,22.42857c-12.34751,0 -22.35714,-10.04161 -22.35714,-22.42857c0,-12.38696 10.00963,-22.42857 22.35714,-22.42857c12.34751,0 22.35714,10.04161 22.35714,22.42857z" fill="url(#color-1)" stroke="none" stroke-width="0" stroke-linecap="butt"/><path d="M433.21428,343l2.57143,-1.14286l-0.28571,-2.57143l1.28571,-1.85714l-0.85714,1.85714l1.28571,3.42857l-0.85714,2.14286z" fill="url(#color-2)" stroke="#cc0000" stroke-width="0" stroke-linecap="round"/><path d="M456.49999,304.00001l-1.85714,1.42857v1.85714l-4,0.14286l2.57143,-1l0.85714,-2.71429z" fill="url(#color-3)" stroke="url(#color-4)" stroke-width="0.5" stroke-linecap="round"/><path d="M424.07142,319.14286l5.14286,-0.85714l-4.57143,2z" fill="url(#color-5)" stroke="url(#color-6)" stroke-width="0.5" stroke-linecap="round"/><path d="M461.78571,341.14286l-2.14286,-4.14286l3,3.85714z" fill="url(#color-7)" stroke="url(#color-8)" stroke-width="0.5" stroke-linecap="round"/><path d="M465.21428,324.57143l3.71429,-0.85714" fill="none" stroke="#cc0000" stroke-width="0.5" stroke-linecap="round"/><path d="M426.78571,328.42857l-2.71429,-0.28571" fill="none" stroke="#cc0000" stroke-width="0.5" stroke-linecap="round"/><path d="M433.07142,306.71429l1.28571,0.85714" fill="none" stroke="#cc0000" stroke-width="0.5" stroke-linecap="round"/><path d="M427.07142,335.85714l1.71429,-0.71429" fill="none" stroke="#ef7474" stroke-width="0.5" stroke-linecap="round"/><path d="M460.21428,343.57142l-2.42857,-2.28571" fill="none" stroke="#ef7474" stroke-width="0.5" stroke-linecap="round"/><path d="M465.64285,329.57143l3.28571,-1.71429" fill="none" stroke="#ef7474" stroke-width="0.5" stroke-linecap="round"/><path d="M460.10316,306.42859l-1.57143,2.28571l-0.28571,2.42857l-4.14286,1.42857l2.71429,-2.57143l0.71429,-2.71429l1.85714,-1.57143z" fill="url(#color-9)" stroke="#ef7474" stroke-width="0" stroke-linecap="round"/><path d="M448.35715,341.57143l1.42857,5.57143l-2.57143,0.57143l0.28571,-4z" fill="url(#color-10)" stroke="url(#color-11)" stroke-width="0.5" stroke-linecap="round"/><path d="M438.5,345.11429l1.42857,-2.14286l0.14286,-2.85714l0.14286,6.57143z" fill="url(#color-12)" stroke="url(#color-13)" stroke-width="0.5" stroke-linecap="round"/><path d="M469.42855,324.3523c0,12.7644 -10.28946,23.11199 -22.98214,23.11199c-12.69269,0 -22.98214,-10.34758 -22.98214,-23.11199c0,-12.7644 10.28946,-23.11199 22.98214,-23.11199c12.69269,0 22.98214,10.34758 22.98214,23.11199z" fill="none" stroke="#000000" stroke-width="1" stroke-linecap="butt"/></g></g></svg>