<svg version="1.1" xmlns="http://www.w3.org/2000/svg" xmlns:xlink="http://www.w3.org/1999/xlink" width="18.42857" height="17.42857" viewBox="0,0,18.42857,17.42857"><defs><linearGradient x1="446.14287" y1="329.57143" x2="446.14287" y2="320" gradientUnits="userSpaceOnUse" id="color-1"><stop offset="0" stop-color="#630b00"/><stop offset="1" stop-color="#2b002f"/></linearGradient><radialGradient cx="450.57144" cy="320.57143" r="6" gradientUnits="userSpaceOnUse" id="color-2"><stop offset="0" stop-color="#ffffff"/><stop offset="1" stop-color="#ffffff" stop-opacity="0"/></radialGradient></defs><g transform="translate(-438.14287,-315.14286)"><g data-paper-data="{&quot;isPaintingLayer&quot;:true}" fill-rule="nonzero" stroke-linecap="butt" stroke-linejoin="miter" stroke-miterlimit="10" stroke-dasharray="" stroke-dashoffset="0" style="mix-blend-mode: normal"><g><path d="M446.14287,329.57143c-2.76142,0 -5,-2.14264 -5,-4.78571c0,-2.64308 2.23858,-4.78572 5,-4.78572c2.76142,0 5,2.14264 5,4.78572c0,2.64308 -2.23858,4.78571 -5,4.78571z" data-paper-data="{&quot;index&quot;:null}" fill="#000000" stroke="url(#color-1)" stroke-width="6"/><path d="M450.19617,324.78571c0,2.09079 -1.77082,3.78571 -3.95522,3.78571c-2.18441,0 -3.95522,-1.69492 -3.95522,-3.78571c0,-2.09079 1.77082,-3.78571 3.95522,-3.78571c2.18441,0 3.95522,1.69492 3.95522,3.78571z" fill="#000000" stroke="none" stroke-width="NaN"/><path d="M456.57144,320.57143c0,2.99812 -2.68629,5.42857 -6,5.42857c-3.31371,0 -6,-2.43045 -6,-5.42857c0,-2.99812 2.68629,-5.42857 6,-5.42857c3.31371,0 6,2.43045 6,5.42857z" fill="url(#color-2)" stroke="none" stroke-width="0"/></g></g></g></svg>