<svg version="1.1" xmlns="http://www.w3.org/2000/svg" xmlns:xlink="http://www.w3.org/1999/xlink" width="79.68146" height="107.54833" viewBox="0,0,79.68146,107.54833"><g transform="translate(-199.81374,-126.54198)"><g data-paper-data="{&quot;isPaintingLayer&quot;:true}" fill-rule="nonzero" stroke-linejoin="miter" stroke-miterlimit="10" stroke-dasharray="" stroke-dashoffset="0" style="mix-blend-mode: normal"><path d="M205.16669,226.08333v-92.16667h69.66667v92.16667z" fill="#cc8c74" stroke="#ad4054" stroke-width="2.5" stroke-linecap="butt"/><path d="M259.50001,133.67137l-0.4,24.2" fill="none" stroke="#be6c6c" stroke-width="1.5" stroke-linecap="round"/><path d="M259.50001,132.9l0.2,9.8l-4,-7.2z" fill="#ad4054" stroke="#ad4054" stroke-width="0.5" stroke-linecap="round"/><path d="M222.30001,202.47137l-0.4,24.2" fill="none" stroke="#be6c6c" stroke-width="1.5" stroke-linecap="round"/><path d="M217.7,225.7l3.8,-7.8l1,7.2z" fill="#ad4054" stroke="#ad4054" stroke-width="0.5" stroke-linecap="round"/><path d="M222.50001,190.27137l0.2,5" fill="none" stroke="#be6c6c" stroke-width="1.5" stroke-linecap="round"/><path d="M224.10001,144.07137l0.2,-10.4" fill="none" stroke="#be6c6c" stroke-width="1.5" stroke-linecap="round"/><path d="M223.30001,147.87137v2.2" fill="none" stroke="#be6c6c" stroke-width="1.5" stroke-linecap="round"/><path d="M259.30002,165.47137l-0.2,-5" fill="none" stroke="#be6c6c" stroke-width="1.5" stroke-linecap="round"/><path d="M259.50001,217.07137l0.2,9.2" fill="none" stroke="#be6c6c" stroke-width="1.5" stroke-linecap="round"/><path d="M268.50001,152.87137l-0.4,24.2" fill="none" stroke="#be6c6c" stroke-width="1.5" stroke-linecap="round"/><path d="M213.50002,193.67137l0.4,-24.2" fill="none" stroke="#be6c6c" stroke-width="1.5" stroke-linecap="round"/><path d="M240.90002,201.87137l0.4,-24.2" fill="none" stroke="#be6c6c" stroke-width="1.5" stroke-linecap="round"/><path d="M205.16669,226.08333v-92.16667h69.66667v92.16667z" fill="none" stroke="#ad4054" stroke-width="2.5" stroke-linecap="butt"/><path d="M208.60369,150.31032c0.09442,0.3759 -0.08427,0.73327 -0.08427,0.73327l-0.54378,1.07852c-0.78135,1.04181 -1.3457,2.12689 -2.13259,3.17024c-0.9932,0.75695 -2.13959,2.22915 -3.67517,1.01113c-0.72768,-0.57719 -0.31603,-1.83127 -0.51853,-2.73772c-0.26435,-1.18329 0.04156,-2.06471 -0.02207,-3.15168c-0.0475,-0.81141 -0.65704,-0.8961 -1.06354,-1.483c-0.77554,-1.11974 -0.93413,-2.27255 -0.93876,-3.58471c-0.00641,-1.81548 0.86216,-2.53544 1.00749,-3.87218c0.17774,-1.63479 1.77658,-3.25628 0.52879,-4.36088c0.4838,-2.75358 3.42122,-7.57091 6.58098,-8.00809c1.84222,-0.25489 4.22721,1.90108 5.65298,1.5179c1.70935,-0.45939 1.10709,-2.50116 2.38565,-3.33114c2.23558,-1.45123 4.92833,0.10001 7.02387,0.65145c2.00387,1.592 11.52545,-1.17287 10.01891,3.96917c-0.85626,2.92256 -5.42646,4.2345 -8.08137,3.10765c-0.39782,-0.16885 -0.85216,-0.43557 -1.20485,-0.73949c-1.64406,2.37722 -2.7579,5.05164 -5.91247,5.06561c-3.12909,-0.09208 -1.12493,1.93262 -2.07612,4.13268c-0.85384,1.97489 -2.93847,2.54323 -4.62339,3.45216c-0.79479,0.42875 -0.68868,1.87807 -1.28274,2.55591c-0.3007,0.3431 -0.65227,0.61359 -1.03906,0.8232z" fill="#62a942" stroke="#2f7971" stroke-width="1.5" stroke-linecap="butt"/><path d="M266.00993,225.78496c0.57966,-0.22524 1.21903,-0.40065 1.76432,-0.41228c-0.00708,-0.0114 -0.01358,-0.02262 -0.01945,-0.03361c-0.22296,-0.4176 -0.31433,-0.90068 -0.37231,-1.37052c-0.11604,-0.94043 0.28996,-3.80735 0.97371,-4.51168c1.76468,-1.81777 3.53256,-0.71284 4.94445,0.63792c0.29187,-0.57742 0.7262,-1.11859 1.08165,-1.36862c1.26695,-0.8912 3.67958,0.28136 4.3629,1.3775c1.05867,1.69826 0.91219,5.34988 -0.35887,6.89107c-0.50786,0.61579 -1.23449,1.03801 -1.70008,1.68634c-0.23739,0.33056 -0.50538,0.66265 -0.85414,0.8724c-0.0233,0.01401 -0.05692,0.01932 -0.09582,0.01877c0.91113,0.21101 2.19085,0.42416 1.00466,2.27426c-0.57173,0.89172 -3.66763,1.47712 -4.73813,1.49237c-1.86145,-0.50567 -2.13184,-1.75964 -3.62052,-2.62231c-2.06437,-1.19626 -4.94776,0.48216 -7,-0.75c-2.97451,-1.7859 -1.6447,-5.94491 1.97245,-5.59345c0.14652,0.01424 1.89597,0.99662 2.65518,1.41184z" fill="#62a942" stroke="#2f7971" stroke-width="1.5" stroke-linecap="butt"/></g></g></svg>