<svg version="1.1" xmlns="http://www.w3.org/2000/svg" xmlns:xlink="http://www.w3.org/1999/xlink" width="633.5" height="386.97233" viewBox="0,0,633.5,386.97233"><g transform="translate(76.75,14.73616)"><g data-paper-data="{&quot;isPaintingLayer&quot;:true}" fill="#000000" fill-rule="nonzero" stroke="#000000" stroke-width="0.5" stroke-linecap="butt" stroke-linejoin="miter" stroke-miterlimit="10" stroke-dasharray="" stroke-dashoffset="0" style="mix-blend-mode: normal"><path d="M43.67625,350.25466l-23.58886,-23.58886l23.58886,-23.58886l23.58887,23.58886z"/><path d="M90.37979,350.25466l-23.58886,-23.58886l23.58886,-23.58886l23.58887,23.58886z"/><path d="M137.91736,350.25466l-23.58886,-23.58886l23.58886,-23.58886l23.58886,23.58886z"/><path d="M184.62091,350.25466l-23.58886,-23.58886l23.58886,-23.58886l23.58886,23.58886z"/><path d="M230.49048,350.25466l-23.58886,-23.58886l23.58886,-23.58886l23.58886,23.58886z"/><path d="M277.19403,350.25466l-23.58886,-23.58886l23.58886,-23.58886l23.58887,23.58886z"/><path d="M324.73159,350.25466l-23.58886,-23.58886l23.58886,-23.58886l23.58886,23.58886z"/><path d="M371.43514,350.25466l-23.58886,-23.58886l23.58886,-23.58886l23.58887,23.58886z"/><path d="M416.47072,350.25466l-23.58886,-23.58886l23.58886,-23.58886l23.58886,23.58886z"/><path d="M462.84869,350.25466l-23.58886,-23.58886l23.58886,-23.58886l23.58887,23.58886z"/><path d="M507.88427,350.25466l-23.58886,-23.58886l23.58886,-23.58886l23.58886,23.58886z"/><path d="M-45.56089,350.25466l-23.58886,-23.58886l23.58886,-23.58886l23.58887,23.58886z"/><path d="M-0.52532,350.25466l-23.58886,-23.58886l23.58886,-23.58886l23.58886,23.58886z"/><path d="M43.00505,53.07326l-23.58886,-23.58886l23.58886,-23.58886l23.58887,23.58886z"/><path d="M89.70859,53.07326l-23.58886,-23.58886l23.58886,-23.58886l23.58887,23.58886z"/><path d="M137.24616,53.07326l-23.58886,-23.58886l23.58886,-23.58886l23.58886,23.58886z"/><path d="M183.94972,53.07326l-23.58886,-23.58886l23.58886,-23.58886l23.58886,23.58886z"/><path d="M229.81928,53.07326l-23.58886,-23.58886l23.58886,-23.58886l23.58886,23.58886z"/><path d="M276.52283,53.07326l-23.58886,-23.58886l23.58886,-23.58886l23.58887,23.58886z"/><path d="M324.06039,53.07326l-23.58886,-23.58886l23.58886,-23.58886l23.58886,23.58886z"/><path d="M370.76395,53.07326l-23.58886,-23.58886l23.58886,-23.58886l23.58887,23.58886z"/><path d="M415.79952,53.07326l-23.58886,-23.58886l23.58886,-23.58886l23.58886,23.58886z"/><path d="M462.1775,53.07326l-23.58886,-23.58886l23.58886,-23.58886l23.58887,23.58886z"/><path d="M507.21307,53.07326l-23.58886,-23.58886l23.58886,-23.58886l23.58886,23.58886z"/><path d="M-46.2321,53.07326l-23.58886,-23.58886l23.58886,-23.58886l23.58887,23.58886z"/><path d="M-1.19654,53.07326l-23.58886,-23.58886l23.58886,-23.58886l23.58886,23.58886z"/><path d="M-76.5,32.70356v-47.18972h633v47.18972z"/><path d="M-68.16008,371.98617v-44.20158h622.99209v44.20158z"/></g></g></svg>