<svg version="1.1" xmlns="http://www.w3.org/2000/svg" xmlns:xlink="http://www.w3.org/1999/xlink" width="47.96428" height="48.22398" viewBox="0,0,47.96428,48.22398"><defs><radialGradient cx="446.57142" cy="324.71429" r="22.64939" gradientUnits="userSpaceOnUse" id="color-1"><stop offset="0" stop-color="#ffb5b5" stop-opacity="0"/><stop offset="1" stop-color="#ffb5b5"/></radialGradient><radialGradient cx="436.42609" cy="342.07563" r="3.71429" gradientUnits="userSpaceOnUse" id="color-2"><stop offset="0" stop-color="#cc0000"/><stop offset="1" stop-color="#ffb5b5"/></radialGradient><radialGradient cx="454.59521" cy="304.65079" r="2.92857" gradientUnits="userSpaceOnUse" id="color-3"><stop offset="0" stop-color="#cc0000"/><stop offset="1" stop-color="#ffb5b5"/></radialGradient><radialGradient cx="454.92855" cy="304.65079" r="2.92857" gradientUnits="userSpaceOnUse" id="color-4"><stop offset="0" stop-color="#cc0000"/><stop offset="1" stop-color="#ffb5b5"/></radialGradient><radialGradient cx="425.19243" cy="319.47024" r="2.57143" gradientUnits="userSpaceOnUse" id="color-5"><stop offset="0" stop-color="#cc0000"/><stop offset="1" stop-color="#ffb5b5"/></radialGradient><radialGradient cx="424.70632" cy="319.42857" r="2.57143" gradientUnits="userSpaceOnUse" id="color-6"><stop offset="0" stop-color="#cc0000"/><stop offset="1" stop-color="#ffb5b5"/></radialGradient><radialGradient cx="461.95831" cy="340.57143" r="2.07143" gradientUnits="userSpaceOnUse" id="color-7"><stop offset="0" stop-color="#cc0000"/><stop offset="1" stop-color="#ffb5b5"/></radialGradient><radialGradient cx="461.76783" cy="340.42857" r="2.07143" gradientUnits="userSpaceOnUse" id="color-8"><stop offset="0" stop-color="#cc0000"/><stop offset="1" stop-color="#ffb5b5"/></radialGradient><radialGradient cx="457.86507" cy="308.7619" r="3.42857" gradientUnits="userSpaceOnUse" id="color-9"><stop offset="0" stop-color="#ef7474"/><stop offset="1" stop-color="#ffb5b5"/></radialGradient><radialGradient cx="448.35714" cy="345" r="3.07143" gradientUnits="userSpaceOnUse" id="color-10"><stop offset="0" stop-color="#ef7474"/><stop offset="1" stop-color="#ffb5b5"/></radialGradient><radialGradient cx="448.78571" cy="345" r="3.07143" gradientUnits="userSpaceOnUse" id="color-11"><stop offset="0" stop-color="#ef7474"/><stop offset="1" stop-color="#ffb5b5"/></radialGradient><radialGradient cx="439.53174" cy="344.49524" r="3.28571" gradientUnits="userSpaceOnUse" id="color-12"><stop offset="0" stop-color="#ef7474"/><stop offset="1" stop-color="#ffb5b5"/></radialGradient><radialGradient cx="439.92857" cy="344.97143" r="3.28571" gradientUnits="userSpaceOnUse" id="color-13"><stop offset="0" stop-color="#ef7474"/><stop offset="1" stop-color="#ffb5b5"/></radialGradient></defs><g transform="translate(-422.46427,-300.24031)"><g data-paper-data="{&quot;isPaintingLayer&quot;:true}" fill-rule="nonzero" stroke-linejoin="miter" stroke-miterlimit="10" stroke-dasharray="" stroke-dashoffset="0" style="mix-blend-mode: normal"><path d="M469.42855,324.3523c0,12.7644 -10.28946,23.11199 -22.98214,23.11199c-12.69269,0 -22.98214,-10.34758 -22.98214,-23.11199c0,-12.7644 10.28946,-23.11199 22.98214,-23.11199c12.69269,0 22.98214,10.34758 22.98214,23.11199z" fill="#ffffff" stroke="#000000" stroke-width="2" stroke-linecap="butt"/><path d="M468.92857,324.71429c0,12.38696 -10.00963,22.42857 -22.35714,22.42857c-12.34751,0 -22.35714,-10.04161 -22.35714,-22.42857c0,-12.38696 10.00963,-22.42857 22.35714,-22.42857c12.34751,0 22.35714,10.04161 22.35714,22.42857z" fill="url(#color-1)" stroke="none" stroke-width="0" stroke-linecap="butt"/><path d="M433.21428,343l2.57143,-1.14286l-0.28571,-2.57143l1.28571,-1.85714l-0.85714,1.85714l1.28571,3.42857l-0.85714,2.14286z" fill="url(#color-2)" stroke="#cc0000" stroke-width="0" stroke-linecap="round"/><path d="M456.49999,304.00001l-1.85714,1.42857v1.85714l-4,0.14286l2.57143,-1l0.85714,-2.71429z" fill="url(#color-3)" stroke="url(#color-4)" stroke-width="0.5" stroke-linecap="round"/><path d="M424.07142,319.14286l5.14286,-0.85714l-4.57143,2z" fill="url(#color-5)" stroke="url(#color-6)" stroke-width="0.5" stroke-linecap="round"/><path d="M461.78571,341.14286l-2.14286,-4.14286l3,3.85714z" fill="url(#color-7)" stroke="url(#color-8)" stroke-width="0.5" stroke-linecap="round"/><path d="M468.92857,323.71429l-3.71429,0.85714" fill="none" stroke="#cc0000" stroke-width="0.5" stroke-linecap="round"/><path d="M426.78571,328.42857l-2.71429,-0.28571" fill="none" stroke="#cc0000" stroke-width="0.5" stroke-linecap="round"/><path d="M433.07142,306.71429l1.28571,0.85714" fill="none" stroke="#cc0000" stroke-width="0.5" stroke-linecap="round"/><path d="M428.78571,335.14285l-1.71429,0.71429" fill="none" stroke="#ef7474" stroke-width="0.5" stroke-linecap="round"/><path d="M457.78571,341.28571l2.42857,2.28571" fill="none" stroke="#ef7474" stroke-width="0.5" stroke-linecap="round"/><path d="M465.64285,329.57143l3.28571,-1.71429" fill="none" stroke="#ef7474" stroke-width="0.5" stroke-linecap="round"/><path d="M460.10316,306.42859l-1.57143,2.28571l-0.28571,2.42857l-4.14286,1.42857l2.71429,-2.57143l0.71429,-2.71429l1.85714,-1.57143z" fill="url(#color-9)" stroke="#ef7474" stroke-width="0" stroke-linecap="round"/><path d="M448.35715,341.57143l1.42857,5.57143l-2.57143,0.57143l0.28571,-4z" fill="url(#color-10)" stroke="url(#color-11)" stroke-width="0.5" stroke-linecap="round"/><path d="M438.5,345.11429l1.42857,-2.14286l0.14286,-2.85714l0.14286,6.57143z" fill="url(#color-12)" stroke="url(#color-13)" stroke-width="0.5" stroke-linecap="round"/><path d="M469.42855,324.3523c0,12.7644 -10.28946,23.11199 -22.98214,23.11199c-12.69269,0 -22.98214,-10.34758 -22.98214,-23.11199c0,-12.7644 10.28946,-23.11199 22.98214,-23.11199c12.69269,0 22.98214,10.34758 22.98214,23.11199z" fill="none" stroke="#000000" stroke-width="1" stroke-linecap="butt"/></g></g></svg>