<svg version="1.1" xmlns="http://www.w3.org/2000/svg" xmlns:xlink="http://www.w3.org/1999/xlink" width="29.46428" height="82.7861" viewBox="0,0,29.46428,82.7861"><defs><radialGradient cx="446.5211" cy="325.32647" r="13.53332" gradientUnits="userSpaceOnUse" id="color-1"><stop offset="0" stop-color="#ffb5b5" stop-opacity="0"/><stop offset="1" stop-color="#ffb5b5"/></radialGradient><radialGradient cx="440.45913" cy="354.56737" r="2.21934" gradientUnits="userSpaceOnUse" id="color-2"><stop offset="0" stop-color="#cc0000"/><stop offset="1" stop-color="#ffb5b5"/></radialGradient><radialGradient cx="451.31542" cy="291.53443" r="1.74986" gradientUnits="userSpaceOnUse" id="color-3"><stop offset="0" stop-color="#cc0000"/><stop offset="1" stop-color="#ffb5b5"/></radialGradient><radialGradient cx="451.5146" cy="291.53443" r="1.74986" gradientUnits="userSpaceOnUse" id="color-4"><stop offset="0" stop-color="#cc0000"/><stop offset="1" stop-color="#ffb5b5"/></radialGradient><radialGradient cx="433.74686" cy="316.49415" r="1.53646" gradientUnits="userSpaceOnUse" id="color-5"><stop offset="0" stop-color="#cc0000"/><stop offset="1" stop-color="#ffb5b5"/></radialGradient><radialGradient cx="433.45641" cy="316.42397" r="1.53646" gradientUnits="userSpaceOnUse" id="color-6"><stop offset="0" stop-color="#cc0000"/><stop offset="1" stop-color="#ffb5b5"/></radialGradient><radialGradient cx="455.71498" cy="352.03392" r="1.23771" gradientUnits="userSpaceOnUse" id="color-7"><stop offset="0" stop-color="#cc0000"/><stop offset="1" stop-color="#ffb5b5"/></radialGradient><radialGradient cx="455.60116" cy="351.7933" r="1.23771" gradientUnits="userSpaceOnUse" id="color-8"><stop offset="0" stop-color="#cc0000"/><stop offset="1" stop-color="#ffb5b5"/></radialGradient><radialGradient cx="453.26921" cy="298.45859" r="2.04862" gradientUnits="userSpaceOnUse" id="color-9"><stop offset="0" stop-color="#ef7474"/><stop offset="1" stop-color="#ffb5b5"/></radialGradient><radialGradient cx="447.58809" cy="359.49275" r="1.83522" gradientUnits="userSpaceOnUse" id="color-10"><stop offset="0" stop-color="#ef7474"/><stop offset="1" stop-color="#ffb5b5"/></radialGradient><radialGradient cx="447.84417" cy="359.49275" r="1.83522" gradientUnits="userSpaceOnUse" id="color-11"><stop offset="0" stop-color="#ef7474"/><stop offset="1" stop-color="#ffb5b5"/></radialGradient><radialGradient cx="442.3148" cy="358.64261" r="1.96326" gradientUnits="userSpaceOnUse" id="color-12"><stop offset="0" stop-color="#ef7474"/><stop offset="1" stop-color="#ffb5b5"/></radialGradient><radialGradient cx="442.55191" cy="359.44463" r="1.96326" gradientUnits="userSpaceOnUse" id="color-13"><stop offset="0" stop-color="#ef7474"/><stop offset="1" stop-color="#ffb5b5"/></radialGradient><linearGradient x1="446.65081" y1="345.42857" x2="446.65081" y2="303.25742" gradientUnits="userSpaceOnUse" id="color-14"><stop offset="0" stop-color="#630b00"/><stop offset="1" stop-color="#2b002f"/></linearGradient><radialGradient cx="448.61906" cy="305.7751" r="2.66667" gradientUnits="userSpaceOnUse" id="color-15"><stop offset="0" stop-color="#ffffff"/><stop offset="1" stop-color="#ffffff" stop-opacity="0"/></radialGradient></defs><g transform="translate(-431.71426,-281.85714)"><g data-paper-data="{&quot;isPaintingLayer&quot;:true}" fill-rule="nonzero" stroke-linejoin="miter" stroke-miterlimit="10" stroke-dasharray="" stroke-dashoffset="0" style="mix-blend-mode: normal"><path d="M460.17855,324.71678c0,21.49849 -6.14809,38.92646 -13.73214,38.92646c-7.58405,0 -13.73214,-17.42795 -13.73214,-38.92646c0,-21.49849 6.14809,-38.92646 13.73214,-38.92646c7.58405,0 13.73214,17.42795 13.73214,38.92646z" fill="#ffffff" stroke="#000000" stroke-width="2" stroke-linecap="butt"/><path d="M459.8798,325.32647c0,20.86279 -5.98089,37.77541 -13.35869,37.77541c-7.3778,0 -13.35869,-16.91262 -13.35869,-37.77541c0,-20.86279 5.98089,-37.77541 13.35869,-37.77541c7.3778,0 13.35869,16.91262 13.35869,37.77541z" fill="url(#color-1)" stroke="none" stroke-width="0" stroke-linecap="butt"/><path d="M438.54003,356.12424l1.53646,-1.92487l-0.17072,-4.33094l0.76823,-3.1279l-0.51215,3.1279l0.76823,5.77458l-0.51215,3.60912z" fill="url(#color-2)" stroke="#cc0000" stroke-width="0" stroke-linecap="round"/><path d="M452.45356,290.43836l-1.10967,2.40607v3.1279l-2.39005,0.24061l1.53646,-1.68425l0.51215,-4.57155z" fill="url(#color-3)" stroke="url(#color-4)" stroke-width="0.5" stroke-linecap="round"/><path d="M433.07705,315.94275l3.07293,-1.44364l-2.73149,3.36851z" fill="url(#color-5)" stroke="url(#color-6)" stroke-width="0.5" stroke-linecap="round"/><path d="M455.61184,352.99635l-1.28039,-6.97763l1.79254,6.4964z" fill="url(#color-7)" stroke="url(#color-8)" stroke-width="0.5" stroke-linecap="round"/><path d="M457.66046,325.08585l2.21934,-1.44364" fill="none" stroke="#cc0000" stroke-width="0.5" stroke-linecap="round"/><path d="M433.07704,331.10105l1.62183,0.48121" fill="none" stroke="#cc0000" stroke-width="0.5" stroke-linecap="round"/><path d="M438.45467,295.00989l0.76823,1.44364" fill="none" stroke="#cc0000" stroke-width="0.5" stroke-linecap="round"/><path d="M434.86959,344.09385l1.02431,-1.20305" fill="none" stroke="#ef7474" stroke-width="0.5" stroke-linecap="round"/><path d="M453.22179,353.23694l1.4511,3.84972" fill="none" stroke="#ef7474" stroke-width="0.5" stroke-linecap="round"/><path d="M457.91654,333.50712l1.96326,-2.8873" fill="none" stroke="#ef7474" stroke-width="0.5" stroke-linecap="round"/><path d="M454.6065,294.52871l-0.93895,3.84972l-0.17072,4.09033l-2.47541,2.40607l1.62183,-4.33094l0.4268,-4.57155l1.10967,-2.64669z" fill="url(#color-9)" stroke="#ef7474" stroke-width="0" stroke-linecap="round"/><path d="M447.5881,353.71817l0.85359,9.3837l-1.53646,0.96243l0.17072,-6.73702z" fill="url(#color-10)" stroke="url(#color-11)" stroke-width="0.5" stroke-linecap="round"/><path d="M441.69832,359.68524l0.85359,-3.60912l0.08536,-4.81215l0.08536,11.06796z" fill="url(#color-12)" stroke="url(#color-13)" stroke-width="0.5" stroke-linecap="round"/><path d="M460.17855,324.71678c0,21.49849 -6.14809,38.92646 -13.73214,38.92646c-7.58405,0 -13.73214,-17.42795 -13.73214,-38.92646c0,-21.49849 6.14809,-38.92646 13.73214,-38.92646c7.58405,0 13.73214,17.42795 13.73214,38.92646z" fill="none" stroke="#000000" stroke-width="1" stroke-linecap="butt"/><g stroke-width="2.5" stroke-linecap="butt"><path d="M446.65081,345.42857c-1.2273,0 -2.22222,-9.44035 -2.22222,-21.08556c0,-11.64525 0.99492,-21.0856 2.22222,-21.0856c1.2273,0 2.22222,9.44035 2.22222,21.0856c0,11.64525 -0.99492,21.08556 -2.22222,21.08556z" data-paper-data="{&quot;index&quot;:null}" fill="#000000" stroke="url(#color-14)"/><path d="M448.45228,324.34297c0,9.2119 -0.78703,16.67961 -1.75788,16.67961c-0.97085,0 -1.75788,-7.46772 -1.75788,-16.67961c0,-9.2119 0.78703,-16.67961 1.75788,-16.67961c0.97085,0 1.75788,7.46772 1.75788,16.67961z" fill="#000000" stroke="none"/><path d="M451.28573,305.7751c0,13.20954 -1.19391,23.91796 -2.66667,23.91796c-1.47276,0 -2.66667,-10.70842 -2.66667,-23.91796c0,-13.20954 1.19391,-23.91796 2.66667,-23.91796c1.47276,0 2.66667,10.70842 2.66667,23.91796z" fill="url(#color-15)" stroke="none"/></g></g></g></svg>