<svg version="1.1" xmlns="http://www.w3.org/2000/svg" xmlns:xlink="http://www.w3.org/1999/xlink" width="57.21428" height="37.78046" viewBox="0,0,57.21428,37.78046"><defs><radialGradient cx="446.72157" cy="325.41075" r="27.20743" gradientUnits="userSpaceOnUse" id="color-1"><stop offset="0" stop-color="#ffb5b5" stop-opacity="0"/><stop offset="1" stop-color="#ffb5b5"/></radialGradient><radialGradient cx="434.53456" cy="338.84959" r="4.46177" gradientUnits="userSpaceOnUse" id="color-2"><stop offset="0" stop-color="#cc0000"/><stop offset="1" stop-color="#ffb5b5"/></radialGradient><radialGradient cx="456.3601" cy="309.88025" r="3.51792" gradientUnits="userSpaceOnUse" id="color-3"><stop offset="0" stop-color="#cc0000"/><stop offset="1" stop-color="#ffb5b5"/></radialGradient><radialGradient cx="456.76052" cy="309.88025" r="3.51792" gradientUnits="userSpaceOnUse" id="color-4"><stop offset="0" stop-color="#cc0000"/><stop offset="1" stop-color="#ffb5b5"/></radialGradient><radialGradient cx="421.04021" cy="321.3515" r="3.08891" gradientUnits="userSpaceOnUse" id="color-5"><stop offset="0" stop-color="#cc0000"/><stop offset="1" stop-color="#ffb5b5"/></radialGradient><radialGradient cx="420.45627" cy="321.31925" r="3.08891" gradientUnits="userSpaceOnUse" id="color-6"><stop offset="0" stop-color="#cc0000"/><stop offset="1" stop-color="#ffb5b5"/></radialGradient><radialGradient cx="465.20497" cy="337.68524" r="2.48829" gradientUnits="userSpaceOnUse" id="color-7"><stop offset="0" stop-color="#cc0000"/><stop offset="1" stop-color="#ffb5b5"/></radialGradient><radialGradient cx="464.97616" cy="337.57466" r="2.48829" gradientUnits="userSpaceOnUse" id="color-8"><stop offset="0" stop-color="#cc0000"/><stop offset="1" stop-color="#ffb5b5"/></radialGradient><radialGradient cx="460.28799" cy="313.06253" r="4.11855" gradientUnits="userSpaceOnUse" id="color-9"><stop offset="0" stop-color="#ef7474"/><stop offset="1" stop-color="#ffb5b5"/></radialGradient><radialGradient cx="448.86666" cy="341.11325" r="3.68953" gradientUnits="userSpaceOnUse" id="color-10"><stop offset="0" stop-color="#ef7474"/><stop offset="1" stop-color="#ffb5b5"/></radialGradient><radialGradient cx="449.38147" cy="341.11325" r="3.68953" gradientUnits="userSpaceOnUse" id="color-11"><stop offset="0" stop-color="#ef7474"/><stop offset="1" stop-color="#ffb5b5"/></radialGradient><radialGradient cx="438.2652" cy="340.72253" r="3.94694" gradientUnits="userSpaceOnUse" id="color-12"><stop offset="0" stop-color="#ef7474"/><stop offset="1" stop-color="#ffb5b5"/></radialGradient><radialGradient cx="438.74189" cy="341.09114" r="3.94694" gradientUnits="userSpaceOnUse" id="color-13"><stop offset="0" stop-color="#ef7474"/><stop offset="1" stop-color="#ffb5b5"/></radialGradient><linearGradient x1="445.98281" y1="328.71428" x2="445.98281" y2="322.93352" gradientUnits="userSpaceOnUse" id="color-14"><stop offset="0" stop-color="#630b00"/><stop offset="1" stop-color="#2b002f"/></linearGradient><radialGradient cx="452.42064" cy="323.27864" r="8.72222" gradientUnits="userSpaceOnUse" id="color-15"><stop offset="0" stop-color="#ffffff"/><stop offset="1" stop-color="#ffffff" stop-opacity="0"/></radialGradient></defs><g transform="translate(-417.96427,-306.24032)"><g data-paper-data="{&quot;isPaintingLayer&quot;:true}" fill-rule="nonzero" stroke-linejoin="miter" stroke-miterlimit="10" stroke-dasharray="" stroke-dashoffset="0" style="mix-blend-mode: normal"><path d="M474.17855,325.13055c0,9.8805 -12.36014,17.89023 -27.60714,17.89023c-15.24701,0 -27.60714,-8.00972 -27.60714,-17.89023c0,-9.8805 12.36014,-17.89023 27.60714,-17.89023c15.24701,0 27.60714,8.00972 27.60714,17.89023z" fill="#ffffff" stroke="#000000" stroke-width="2" stroke-linecap="butt"/><path d="M473.57795,325.41075c0,9.58834 -12.024,17.36122 -26.85636,17.36122c-14.83236,0 -26.85636,-7.77288 -26.85636,-17.36122c0,-9.58834 12.024,-17.36122 26.85636,-17.36122c14.83236,0 26.85636,7.77288 26.85636,17.36122z" fill="url(#color-1)" stroke="none" stroke-width="0" stroke-linecap="butt"/><path d="M430.6764,339.56512l3.08891,-0.88465l-0.34321,-1.99046l1.54445,-1.43755l-1.02963,1.43755l1.54445,2.65394l-1.02963,1.65872z" fill="url(#color-2)" stroke="#cc0000" stroke-width="0" stroke-linecap="round"/><path d="M458.6482,309.37651l-2.23088,1.10581v1.43755l-4.80497,0.11058l3.08891,-0.77407l1.02963,-2.10104z" fill="url(#color-3)" stroke="url(#color-4)" stroke-width="0.5" stroke-linecap="round"/><path d="M419.6936,321.09809l6.17783,-0.66348l-5.4914,1.54813z" fill="url(#color-5)" stroke="url(#color-6)" stroke-width="0.5" stroke-linecap="round"/><path d="M464.99764,338.12757l-2.5741,-3.20685l3.60373,2.98569z" fill="url(#color-7)" stroke="url(#color-8)" stroke-width="0.5" stroke-linecap="round"/><path d="M469.11618,325.30017l4.46177,-0.66348" fill="none" stroke="#cc0000" stroke-width="0.5" stroke-linecap="round"/><path d="M422.95412,328.28585l-3.26052,-0.22116" fill="none" stroke="#cc0000" stroke-width="0.5" stroke-linecap="round"/><path d="M430.50479,311.47754l1.54445,0.66348" fill="none" stroke="#cc0000" stroke-width="0.5" stroke-linecap="round"/><path d="M423.29733,334.03606l2.05928,-0.55291" fill="none" stroke="#ef7474" stroke-width="0.5" stroke-linecap="round"/><path d="M463.10997,340.00743l-2.9173,-1.76929" fill="none" stroke="#ef7474" stroke-width="0.5" stroke-linecap="round"/><path d="M469.631,329.1705l3.94694,-1.32698" fill="none" stroke="#ef7474" stroke-width="0.5" stroke-linecap="round"/><path d="M462.97648,311.25639l-1.88767,1.76929l-0.34321,1.87988l-4.97658,1.10581l3.26052,-1.99046l0.85804,-2.10104l2.23088,-1.21639z" fill="url(#color-9)" stroke="#ef7474" stroke-width="0" stroke-linecap="round"/><path d="M448.86667,338.45931l1.71606,4.31266l-3.08891,0.44233l0.34321,-3.09627z" fill="url(#color-10)" stroke="url(#color-11)" stroke-width="0.5" stroke-linecap="round"/><path d="M437.02583,341.20172l1.71606,-1.65872l0.17161,-2.21162l0.17161,5.08673z" fill="url(#color-12)" stroke="url(#color-13)" stroke-width="0.5" stroke-linecap="round"/><path d="M474.17855,325.13055c0,9.8805 -12.36014,17.89023 -27.60714,17.89023c-15.24701,0 -27.60714,-8.00972 -27.60714,-17.89023c0,-9.8805 12.36014,-17.89023 27.60714,-17.89023c15.24701,0 27.60714,8.00972 27.60714,17.89023z" fill="none" stroke="#000000" stroke-width="1" stroke-linecap="butt"/><g stroke-linecap="butt"><path d="M445.98281,328.71428c-4.01429,0 -7.26852,-1.29407 -7.26852,-2.89038c0,-1.59632 3.25423,-2.89039 7.26852,-2.89039c4.01429,0 7.26852,1.29407 7.26852,2.89039c0,1.59632 -3.25423,2.89038 -7.26852,2.89038z" data-paper-data="{&quot;index&quot;:null}" fill="#000000" stroke="url(#color-14)" stroke-width="6"/><path d="M451.87511,325.8239c0,1.26275 -2.57425,2.28642 -5.74972,2.28642c-3.17548,0 -5.74972,-1.02366 -5.74972,-2.28642c0,-1.26275 2.57425,-2.28642 5.74972,-2.28642c3.17548,0 5.74972,1.02366 5.74972,2.28642z" fill="#000000" stroke="none" stroke-width="NaN"/><path d="M461.14286,323.27864c0,1.81075 -3.90507,3.27864 -8.72222,3.27864c-4.81715,0 -8.72222,-1.4679 -8.72222,-3.27864c0,-1.81075 3.90507,-3.27864 8.72222,-3.27864c4.81715,0 8.72222,1.4679 8.72222,3.27864z" fill="url(#color-15)" stroke="none" stroke-width="0"/></g></g></g></svg>