<svg version="1.1" xmlns="http://www.w3.org/2000/svg" xmlns:xlink="http://www.w3.org/1999/xlink" width="47.96428" height="50.08382" viewBox="0,0,47.96428,50.08382"><defs><radialGradient cx="446.57142" cy="324.71429" r="22.64939" gradientUnits="userSpaceOnUse" id="color-1"><stop offset="0" stop-color="#ffb5b5" stop-opacity="0"/><stop offset="1" stop-color="#ffb5b5"/></radialGradient><radialGradient cx="436.42609" cy="342.07563" r="3.71429" gradientUnits="userSpaceOnUse" id="color-2"><stop offset="0" stop-color="#cc0000"/><stop offset="1" stop-color="#ffb5b5"/></radialGradient><radialGradient cx="454.59521" cy="304.65079" r="2.92857" gradientUnits="userSpaceOnUse" id="color-3"><stop offset="0" stop-color="#cc0000"/><stop offset="1" stop-color="#ffb5b5"/></radialGradient><radialGradient cx="454.92855" cy="304.65079" r="2.92857" gradientUnits="userSpaceOnUse" id="color-4"><stop offset="0" stop-color="#cc0000"/><stop offset="1" stop-color="#ffb5b5"/></radialGradient><radialGradient cx="425.19243" cy="319.47024" r="2.57143" gradientUnits="userSpaceOnUse" id="color-5"><stop offset="0" stop-color="#cc0000"/><stop offset="1" stop-color="#ffb5b5"/></radialGradient><radialGradient cx="424.70632" cy="319.42857" r="2.57143" gradientUnits="userSpaceOnUse" id="color-6"><stop offset="0" stop-color="#cc0000"/><stop offset="1" stop-color="#ffb5b5"/></radialGradient><radialGradient cx="461.95831" cy="340.57143" r="2.07143" gradientUnits="userSpaceOnUse" id="color-7"><stop offset="0" stop-color="#cc0000"/><stop offset="1" stop-color="#ffb5b5"/></radialGradient><radialGradient cx="461.76783" cy="340.42857" r="2.07143" gradientUnits="userSpaceOnUse" id="color-8"><stop offset="0" stop-color="#cc0000"/><stop offset="1" stop-color="#ffb5b5"/></radialGradient><radialGradient cx="457.86507" cy="308.7619" r="3.42857" gradientUnits="userSpaceOnUse" id="color-9"><stop offset="0" stop-color="#ef7474"/><stop offset="1" stop-color="#ffb5b5"/></radialGradient><radialGradient cx="448.35714" cy="345" r="3.07143" gradientUnits="userSpaceOnUse" id="color-10"><stop offset="0" stop-color="#ef7474"/><stop offset="1" stop-color="#ffb5b5"/></radialGradient><radialGradient cx="448.78571" cy="345" r="3.07143" gradientUnits="userSpaceOnUse" id="color-11"><stop offset="0" stop-color="#ef7474"/><stop offset="1" stop-color="#ffb5b5"/></radialGradient><radialGradient cx="439.53174" cy="344.49524" r="3.28571" gradientUnits="userSpaceOnUse" id="color-12"><stop offset="0" stop-color="#ef7474"/><stop offset="1" stop-color="#ffb5b5"/></radialGradient><radialGradient cx="439.92857" cy="344.97143" r="3.28571" gradientUnits="userSpaceOnUse" id="color-13"><stop offset="0" stop-color="#ef7474"/><stop offset="1" stop-color="#ffb5b5"/></radialGradient><linearGradient x1="446.14288" y1="329.57143" x2="446.14288" y2="320" gradientUnits="userSpaceOnUse" id="color-14"><stop offset="0" stop-color="#630b00"/><stop offset="1" stop-color="#2b002f"/></linearGradient><radialGradient cx="450.57145" cy="320.57143" r="6" gradientUnits="userSpaceOnUse" id="color-15"><stop offset="0" stop-color="#ffffff"/><stop offset="1" stop-color="#ffffff" stop-opacity="0"/></radialGradient></defs><g transform="translate(-422.46427,-299.20417)"><g data-paper-data="{&quot;isPaintingLayer&quot;:true}" fill-rule="nonzero" stroke-linejoin="miter" stroke-miterlimit="10" stroke-dasharray="" stroke-dashoffset="0" style="mix-blend-mode: normal"><path d="M469.42855,324.3523c0,12.7644 -10.28946,23.11199 -22.98214,23.11199c-12.69269,0 -22.98214,-10.34758 -22.98214,-23.11199c0,-12.7644 10.28946,-23.11199 22.98214,-23.11199c12.69269,0 22.98214,10.34758 22.98214,23.11199z" fill="#ffffff" stroke="#000000" stroke-width="2" stroke-linecap="butt"/><path d="M468.92857,324.71429c0,12.38696 -10.00963,22.42857 -22.35714,22.42857c-12.34751,0 -22.35714,-10.04161 -22.35714,-22.42857c0,-12.38696 10.00963,-22.42857 22.35714,-22.42857c12.34751,0 22.35714,10.04161 22.35714,22.42857z" fill="url(#color-1)" stroke="none" stroke-width="0" stroke-linecap="butt"/><path d="M433.21428,343l2.57143,-1.14286l-0.28571,-2.57143l1.28571,-1.85714l-0.85714,1.85714l1.28571,3.42857l-0.85714,2.14286z" fill="url(#color-2)" stroke="#cc0000" stroke-width="0" stroke-linecap="round"/><path d="M456.49999,304.00001l-1.85714,1.42857v1.85714l-4,0.14286l2.57143,-1l0.85714,-2.71429z" fill="url(#color-3)" stroke="url(#color-4)" stroke-width="0.5" stroke-linecap="round"/><path d="M424.07142,319.14286l5.14286,-0.85714l-4.57143,2z" fill="url(#color-5)" stroke="url(#color-6)" stroke-width="0.5" stroke-linecap="round"/><path d="M461.78571,341.14286l-2.14286,-4.14286l3,3.85714z" fill="url(#color-7)" stroke="url(#color-8)" stroke-width="0.5" stroke-linecap="round"/><path d="M465.21428,324.57143l3.71429,-0.85714" fill="none" stroke="#cc0000" stroke-width="0.5" stroke-linecap="round"/><path d="M426.78571,328.42857l-2.71429,-0.28571" fill="none" stroke="#cc0000" stroke-width="0.5" stroke-linecap="round"/><path d="M433.07142,306.71429l1.28571,0.85714" fill="none" stroke="#cc0000" stroke-width="0.5" stroke-linecap="round"/><path d="M427.07142,335.85714l1.71429,-0.71429" fill="none" stroke="#ef7474" stroke-width="0.5" stroke-linecap="round"/><path d="M460.21428,343.57142l-2.42857,-2.28571" fill="none" stroke="#ef7474" stroke-width="0.5" stroke-linecap="round"/><path d="M465.64285,329.57143l3.28571,-1.71429" fill="none" stroke="#ef7474" stroke-width="0.5" stroke-linecap="round"/><path d="M460.10316,306.42859l-1.57143,2.28571l-0.28571,2.42857l-4.14286,1.42857l2.71429,-2.57143l0.71429,-2.71429l1.85714,-1.57143z" fill="url(#color-9)" stroke="#ef7474" stroke-width="0" stroke-linecap="round"/><path d="M448.35715,341.57143l1.42857,5.57143l-2.57143,0.57143l0.28571,-4z" fill="url(#color-10)" stroke="url(#color-11)" stroke-width="0.5" stroke-linecap="round"/><path d="M438.5,345.11429l1.42857,-2.14286l0.14286,-2.85714l0.14286,6.57143z" fill="url(#color-12)" stroke="url(#color-13)" stroke-width="0.5" stroke-linecap="round"/><g stroke-linecap="butt"><path d="M446.14288,329.57143c-2.76142,0 -5,-2.14264 -5,-4.78571c0,-2.64308 2.23858,-4.78572 5,-4.78572c2.76142,0 5,2.14264 5,4.78572c0,2.64308 -2.23858,4.78571 -5,4.78571z" data-paper-data="{&quot;index&quot;:null}" fill="#000000" stroke="url(#color-14)" stroke-width="6"/><path d="M450.19618,324.78571c0,2.09079 -1.77082,3.78571 -3.95522,3.78571c-2.18441,0 -3.95522,-1.69492 -3.95522,-3.78571c0,-2.09079 1.77082,-3.78571 3.95522,-3.78571c2.18441,0 3.95522,1.69492 3.95522,3.78571z" fill="#000000" stroke="none" stroke-width="NaN"/><path d="M456.57145,320.57143c0,2.99812 -2.68629,5.42857 -6,5.42857c-3.31371,0 -6,-2.43045 -6,-5.42857c0,-2.99812 2.68629,-5.42857 6,-5.42857c3.31371,0 6,2.43045 6,5.42857z" fill="url(#color-15)" stroke="none" stroke-width="0"/></g><path d="M469.42855,324.3523c0,12.7644 -10.28946,23.11199 -22.98214,23.11199c-12.69269,0 -22.98214,-10.34758 -22.98214,-23.11199c0,-12.7644 10.28946,-23.11199 22.98214,-23.11199c12.69269,0 22.98214,10.34758 22.98214,23.11199z" fill="none" stroke="#000000" stroke-width="1" stroke-linecap="butt"/><path d="M423.92855,321.41429c-1,0 -1,-1 -1,-1v-0.6c0.06886,-7.25393 5.86627,-12.38792 11.58459,-15.78821c2.47831,-2.43576 7.32218,-4.59381 10.79929,-4.81166c1.90148,-0.11914 3.62727,0.83662 5.4986,1.00328c1.98229,0.17654 4.0337,0.50027 5.75511,1.63969c1.83804,1.21661 3.76854,2.82814 5.46169,4.24206c2.04017,2.34603 4.39628,3.92636 5.63065,6.94711c0.88118,2.15641 0.4321,4.86858 0.88301,7.09534c0.20772,1.02581 1.34533,3.041 0.14769,4.10046c-0.16178,0.14312 -4.35667,-0.41055 -4.62796,-0.43034c-3.20776,-0.234 -6.41524,-0.19215 -9.63121,-0.2026c-1.96467,-0.39293 -3.88725,0.1544 -5.82048,-0.00224c-3.87622,-0.31407 -7.75542,-1.7591 -11.73628,-1.99442c-3.98806,-0.23575 -8.13778,0.20153 -12.1447,0.20153c0,0 -1,0 -1,-1c0,-1 1,-1 1,-1c0.06663,0 0.13329,-0.00012 0.2,-0.00035c0,0.00012 0,0.00023 0,0.00035v0.6c0,0 0,1 -1,1z" fill="#000000" stroke="none" stroke-width="0.5" stroke-linecap="butt"/><path d="M429.41377,339.45246c-1.47877,-1.01177 -2.80512,-2.1356 -3.72216,-3.49087c-1.22922,-1.81663 -1.6983,-4.20077 -1.71268,-6.4536l-0.24267,0.03033l-0.15392,-1.23139c-0.16711,-0.16478 -0.29053,-0.41742 -0.24768,-0.80308c0.11043,-0.99388 1.10432,-0.88345 1.10432,-0.88345c8.76983,0.98303 18.28479,3.45938 27.03427,2.39541c3.94438,-0.00572 8.00656,0.02429 11.90931,-0.49808c1.11762,-0.14959 3.38977,-1.0896 4.58607,-0.69073c0.05207,-0.00837 0.10549,-0.01272 0.15992,-0.01272c0.55228,0 1,0.44772 1,1c0,0.1393 -0.02848,0.27195 -0.07995,0.39245l-0.05844,0.14609c0.01218,0.62537 -0.22976,1.34959 -0.60904,2.09363c0.43,0.11191 0.74742,0.5028 0.74742,0.96783c0,0.22876 -0.07682,0.43959 -0.20606,0.60808l-0.59394,0.79192l-0.02461,-0.01846l-0.19452,0.24315l-0.01727,-0.01382c-0.00425,0.01271 -0.00851,0.02543 -0.01279,0.03816l0.0043,0.00656c-0.00338,0.0036 -0.00676,0.00719 -0.01014,0.01078c-0.87532,2.59792 -2.37115,5.60119 -4.12555,7.14818c-1.40199,0.76451 -2.60075,1.85483 -3.49456,3.16923c-0.06723,0.01036 -0.13447,0.02073 -0.20171,0.0311c0.02495,0.05974 0.04427,0.12241 0.0573,0.18736c-0.23299,0.36266 -0.44318,0.74137 -0.62856,1.13408c-0.05578,0.02097 -0.11393,0.03711 -0.17394,0.04788l-0.98183,0.19637l-0.03612,-0.18058h-0.44773c-0.70311,0.21161 -1.4098,0.32142 -2.12658,0.36953c-0.05907,0.34591 -0.2958,0.63122 -0.61295,0.7587l-1.37882,0.59092l-0.0059,-0.01377l-0.03264,0.02934c-6.96945,2.32827 -12.40234,3.01634 -17.87277,-2.41725c-1.59707,0.0859 -2.78464,-0.82946 -4.06104,-3.08168l-0.61431,-0.61431c-0.65268,-0.57269 -1.29893,-1.25249 -1.92205,-1.98332z" fill="#000000" stroke="none" stroke-width="0.5" stroke-linecap="butt"/></g></g></svg>