<svg version="1.1" xmlns="http://www.w3.org/2000/svg" xmlns:xlink="http://www.w3.org/1999/xlink" width="48.75" height="49" viewBox="0,0,48.75,49"><g transform="translate(-422.5,-300)"><g data-paper-data="{&quot;isPaintingLayer&quot;:true}" fill-rule="nonzero" stroke-linecap="butt" stroke-linejoin="miter" stroke-miterlimit="10" stroke-dasharray="" stroke-dashoffset="0" style="mix-blend-mode: normal"><path d="M469,324.5c0,12.28834 -9.9057,22.25 -22.125,22.25c-12.2193,0 -22.125,-9.96166 -22.125,-22.25c0,-12.28834 9.9057,-22.25 22.125,-22.25c12.2193,0 22.125,9.96166 22.125,22.25z" fill="#ffffff" stroke="#000000" stroke-width="4.5"/><path d="M423.75,316.25v-1.03998c2.37253,-0.81491 4.34186,-2.49721 5.52933,-4.66826c0.15658,-0.20942 0.31799,-0.42936 0.48501,-0.66052c0.74498,-1.03105 2.7858,-1.29043 3.89794,-1.89441c5.22251,-2.83624 12.01498,-7.38218 18.89342,-6.53541c3.92817,0.48358 3.24045,5.42554 6.79265,7.02129c1.36644,0.61384 3.33865,0.28806 4.61476,1.56418c1.04507,1.04507 0.98863,3.83201 2.06399,4.73918c0.50684,0.42757 1.40315,0.96541 2.48495,1.47393z" fill="#000000" stroke="none" stroke-width="0"/><path d="M430,338.5l-6.75,-7l45.25,-0.5l-8,11.75c0,0 -12.45046,5.08477 -17.83151,4.33495c-4.69047,-0.65359 -12.66849,-8.58495 -12.66849,-8.58495z" fill="#000000" stroke="none" stroke-width="0"/></g></g></svg>